<?xml version="1.0" encoding="UTF-8"?>
<svg width="868px" height="577px" viewBox="0 0 868 577" version="1.1" xmlns="http://www.w3.org/2000/svg" xmlns:xlink="http://www.w3.org/1999/xlink">
    <title>67AC7338-E42D-48E2-BC6A-C0DF2857CE10</title>
    <defs>
        <path d="M164.9705,68.295 C164.9705,68.295 148.9705,69.87 98.7155,75.065 C39.1905,81.215 13.9705,109.99 1.5055,146.45 C-2.3995,157.89 1.3755,170.45 13.4655,170.53 L67.9655,170.965 L140.58,171.58 L153.295,128.705 L204.515,112.97 C225.91,106.395 233.5905,80.065 219.0855,63.015 L165.74,0.335 L135.7,20.01 L164.9705,68.295 Z" id="path-1"></path>
        <path d="M0.37,57.905 C-4.3,91.405 47.14,145.945 47.14,145.945 L77.955,123.405 L52.52,62.76 L84.775,0.19 L19.43,5.985 C19.43,5.985 4.135,30.895 0.37,57.905 Z" id="path-3"></path>
    </defs>
    <g id="Page-1" stroke="none" stroke-width="1" fill="none" fill-rule="evenodd">
        <g id="Forgot-Password" transform="translate(-51.000000, -178.000000)">
            <g id="14" transform="translate(59.967421, 186.905622)">
                <polyline id="Path" stroke="#F2F6F9" stroke-width="16.5" stroke-linecap="round" stroke-linejoin="round" points="849.865 182.475 782.6 249.515 727.455 194.56 668.295 253.52"></polyline>
                <line x1="723.11" y1="336.505" x2="839.94" y2="452.935" id="Path" stroke="#F2F6F9" stroke-width="16.5" stroke-linecap="round" stroke-linejoin="round"></line>
                <line x1="629.57" y1="502.615" x2="691.17" y2="441.225" id="Path" stroke="#F2F6F9" stroke-width="16.5" stroke-linecap="round" stroke-linejoin="round"></line>
                <line x1="0.25" y1="395.245" x2="61.85" y2="333.855" id="Path" stroke="#EDF1F4" stroke-width="16.5" stroke-linecap="round" stroke-linejoin="round"></line>
                <line x1="151.315" y1="122.18" x2="241.29" y2="32.51" id="Path" stroke="#F2F6F9" stroke-width="16.5" stroke-linecap="round" stroke-linejoin="round"></line>
                <polyline id="Path" stroke="#F2F6F9" stroke-width="16.5" stroke-linecap="round" stroke-linejoin="round" points="567.65 364.55 494.005 364.55 494.005 304.38 429.235 304.38 429.235 238.05"></polyline>
                <polyline id="Path" stroke="#F2F6F9" stroke-width="16.5" stroke-linecap="round" stroke-linejoin="round" points="107.815 258.815 175.08 325.855 119.94 380.81 179.1 439.77"></polyline>
                <line x1="328.695" y1="258.115" x2="445.525" y2="141.685" id="Path" stroke="#F2F6F9" stroke-width="16.5" stroke-linecap="round" stroke-linejoin="round"></line>
                <line x1="378.105" y1="510.59" x2="470.615" y2="418.08" id="Path" stroke="#EDF1F4" stroke-width="16.5" stroke-linecap="round" stroke-linejoin="round"></line>
                <line x1="383.095" y1="392.33" x2="321.495" y2="330.935" id="Path" stroke="#F2F6F9" stroke-width="16.5" stroke-linecap="round" stroke-linejoin="round"></line>
                <line x1="780.045" y1="89.08" x2="723.11" y2="32.335" id="Path" stroke="#EDF1F4" stroke-width="16.5" stroke-linecap="round" stroke-linejoin="round"></line>
                <line x1="82.85" y1="93.105" x2="25.91015" y2="36.36" id="Path" stroke="#F2F6F9" stroke-width="16.5" stroke-linecap="round" stroke-linejoin="round"></line>
                <line x1="566.15" y1="126.165" x2="439.805" y2="0.25" id="Path" stroke="#F2F6F9" stroke-width="16.5" stroke-linecap="round" stroke-linejoin="round"></line>
                <path d="M65.262,192.0385 C65.7435,180.1075 56.4305,170.0445 44.461,169.5615 C32.4918,169.079 22.3986,178.359 21.9173,190.29 C21.43605,202.2205 30.74895,212.2835 42.7185,212.7665 C54.6875,213.2495 64.781,203.969 65.262,192.0385 Z" id="Path" fill="#F2F6F9" fill-rule="nonzero"></path>
                <path d="M660.37,111.795 C672.35,111.795 682.06,102.1155 682.06,90.175 C682.06,78.2345 672.35,68.555 660.37,68.555 C648.39,68.555 638.68,78.2345 638.68,90.175 C638.68,102.1155 648.39,111.795 660.37,111.795 Z" id="Path" fill="#F2F6F9" fill-rule="nonzero"></path>
                <path d="M69.82,515.11 C81.799,515.11 91.51,505.43 91.51,493.49 C91.51,481.5495 81.799,471.87 69.82,471.87 C57.841,471.87 48.13,481.5495 48.13,493.49 C48.13,505.43 57.841,515.11 69.82,515.11 Z" id="Path" fill="#F2F6F9" fill-rule="nonzero"></path>
                <path d="M555.945,485.955 C567.925,485.955 577.635,476.2755 577.635,464.335 C577.635,452.3945 567.925,442.715 555.945,442.715 C543.965,442.715 534.255,452.3945 534.255,464.335 C534.255,476.2755 543.965,485.955 555.945,485.955 Z" id="Path" fill="#F2F6F9" fill-rule="nonzero"></path>
                <path d="M274.62,168.505 C286.599,168.505 296.31,158.8255 296.31,146.885 C296.31,134.9445 286.599,125.265 274.62,125.265 C262.641,125.265 252.93,134.9445 252.93,146.885 C252.93,158.8255 262.641,168.505 274.62,168.505 Z" id="Path" fill="#F2F6F9" fill-rule="nonzero"></path>
                <path d="M432.03,567.355 C592.79,567.355 723.11,565.96 723.11,564.24 C723.11,562.52 592.79,561.125 432.03,561.125 C271.271,561.125 140.95,562.52 140.95,564.24 C140.95,565.96 271.271,567.355 432.03,567.355 Z" id="Path" fill="#E4EFF7" fill-rule="nonzero"></path>
                <path d="M315.83,83.12 L308.03,76.075 C308.03,76.075 288.335,81.78 287.03,72.53 C287.03,72.53 283.895,73.34 283.12,71.595 C282.345,69.85 288.43,62.905 288.43,62.905 C288.43,62.905 289.14,55.405 295.185,52.345 C301.23,49.285 316.265,44.965 317.955,46.765 C319.645,48.565 325.58,69.185 325.58,69.185 C325.58,69.185 326.825,78.075 315.83,83.12 Z" id="Path" fill="#EF6E45" fill-rule="nonzero"></path>
                <path d="M249.04,541.26 L271.24,358.565 L281.74,406.565 L273.655,541.26 L334.655,541.26 L343.24,393.26 C343.8295,383.113 342.8655,372.9355 340.38,363.08 L308.105,235.08 L205.55,234.26 L205.16,385.335 L189.56,541.26 L249.04,541.26 Z" id="Path" fill="#24272D" fill-rule="nonzero"></path>
                <line x1="271.54" y1="362.535" x2="278.425" y2="290.405" id="Path" stroke="#FFFFFF" stroke-width="1.5" stroke-linecap="square"></line>
                <polygon id="Path" fill="#004599" fill-rule="nonzero" points="277.065 541.26 265.54 564.24 369.21 564.24 326.025 541.26"></polygon>
                <polygon id="Path" fill="#004599" fill-rule="nonzero" points="193.0705 541.26 181.5455 564.24 285.2155 564.24 242.0305 541.26"></polygon>
                <polyline id="Path" stroke="#FFFFFF" stroke-width="1.5" stroke-linecap="square" points="286.3505 394.72 280.2155 403.565 286.9655 410.8"></polyline>
                <polygon id="Path" fill="#CFD0D1" fill-rule="nonzero" points="303.53 190.338 129.2855 207.2695 141.03 328.135 315.2745 311.204"></polygon>
                <line x1="221.29" y1="253.335" x2="162.62" y2="301.335" id="Path" stroke="#889099" stroke-width="2"></line>
                <path d="M583.54,239.145 L583.54,299.06 L625.84,299.06 L625.84,239.145 C625.84,233.5475 623.62,228.1785 619.665,224.214 C615.715,220.25 610.355,218.0135 604.755,217.995 L604.69,217.995 L603.66,218.025 C598.41,218.2785 593.445,220.477 589.73,224.192 C586.015,227.907 583.82,232.8725 583.565,238.12 C583.545,238.455 583.54,238.8 583.54,239.145 Z" id="Path" fill="#24272D" fill-rule="nonzero"></path>
                <polygon id="Path" fill="#24272D" fill-rule="nonzero" points="641.54 564.235 650.925 564.235 650.925 299.06 641.54 299.06"></polygon>
                <polygon id="Path" fill="#54565B" fill-rule="nonzero" points="650.925 564.235 660.31 564.235 660.31 299.06 650.925 299.06"></polygon>
                <path d="M583.54,299.065 L625.84,299.065 L611.58,317.685 C608.73,321.4035 605.065,324.4165 600.865,326.4895 C596.665,328.563 592.045,329.641 587.36,329.640001 L575.285,329.640001 C573.89,329.6355 572.525,329.242 571.34,328.5035 C570.155,327.765 569.205,326.7115 568.585,325.4605 C567.97,324.2095 567.71,322.8115 567.845,321.423 C567.98,320.034 568.495,318.7105 569.34,317.6 L583.54,299.065 Z" id="Path" fill="#8A8B96" fill-rule="nonzero"></path>
                <polygon id="Path" fill="#24272D" fill-rule="nonzero" points="660.315 299.065 660.315 313.38 650.925 329.64 650.925 299.065"></polygon>
                <path d="M180.0755,185.9 C176.673,191.8975 173.644,198.0995 171.0055,204.47 C173.4665,198.021 176.502,191.806 180.0755,185.9 L180.0755,185.9 Z" id="Path" fill="#004599" fill-rule="nonzero"></path>
                <path d="M332.4705,131.795 C332.4705,131.795 316.4705,133.37 266.2155,138.565 C206.6905,144.715 181.4705,173.49 169.0055,209.95 C165.1005,221.39 168.8755,233.95 180.9655,234.03 L308.08,235.08 L320.795,192.205 L372.015,176.47 C393.41,169.895 401.0905,143.565 386.5855,126.515 L333.24,63.835 L303.2,83.51 L332.4705,131.795 Z" id="Path" fill="#004599" fill-rule="nonzero"></path>
                <g id="Clipped" transform="translate(167.500000, 63.500000)">
                    <mask id="mask-2" fill="white">
                        <use xlink:href="#path-1"></use>
                    </mask>
                    <g id="Path"></g>
                    <g id="Group" mask="url(#mask-2)" fill="#3361C2" fill-rule="nonzero">
                        <g transform="translate(-9.000000, -0.500000)" id="Path">
                            <path d="M15.47,146.525 C24.014,146.525 30.94,139.599 30.94,131.055 C30.94,122.511 24.014,115.585 15.47,115.585 C6.926,115.585 0,122.511 0,131.055 C0,139.599 6.926,146.525 15.47,146.525 Z"></path>
                            <path d="M82.21,146.525 C90.754,146.525 97.68,139.599 97.68,131.055 C97.68,122.511 90.754,115.585 82.21,115.585 C73.6665,115.585 66.74,122.511 66.74,131.055 C66.74,139.599 73.6665,146.525 82.21,146.525 Z"></path>
                            <path d="M149.45,146.525 C157.994,146.525 164.92,139.599 164.92,131.055 C164.92,122.511 157.994,115.585 149.45,115.585 C140.906,115.585 133.98,122.511 133.98,131.055 C133.98,139.599 140.906,146.525 149.45,146.525 Z"></path>
                            <path d="M49.775,108.395 C58.319,108.395 65.245,101.469 65.245,92.925 C65.245,84.381 58.319,77.455 49.775,77.455 C41.2315,77.455 34.305,84.381 34.305,92.925 C34.305,101.469 41.2315,108.395 49.775,108.395 Z"></path>
                            <path d="M116.52,108.395 C125.0635,108.395 131.99,101.469 131.99,92.925 C131.99,84.381 125.0635,77.455 116.52,77.455 C107.976,77.455 101.05,84.381 101.05,92.925 C101.05,101.469 107.976,108.395 116.52,108.395 Z"></path>
                            <path d="M183.26,108.395 C191.804,108.395 198.73,101.469 198.73,92.925 C198.73,84.381 191.804,77.455 183.26,77.455 C174.716,77.455 167.79,84.381 167.79,92.925 C167.79,101.469 174.716,108.395 183.26,108.395 Z"></path>
                            <path d="M149.45,67.565 C157.994,67.565 164.92,60.639 164.92,52.095 C164.92,43.551 157.994,36.625 149.45,36.625 C140.906,36.625 133.98,43.551 133.98,52.095 C133.98,60.639 140.906,67.565 149.45,67.565 Z"></path>
                            <path d="M216.57,67.565 C225.114,67.565 232.04,60.639 232.04,52.095 C232.04,43.551 225.114,36.625 216.57,36.625 C208.0265,36.625 201.1,43.551 201.1,52.095 C201.1,60.639 208.0265,67.565 216.57,67.565 Z"></path>
                            <path d="M183.26,30.94 C191.804,30.94 198.73,24.014 198.73,15.47 C198.73,6.926 191.804,0 183.26,0 C174.716,0 167.79,6.926 167.79,15.47 C167.79,24.014 174.716,30.94 183.26,30.94 Z"></path>
                            <path d="M49.775,188.64 C58.319,188.64 65.245,181.714 65.245,173.17 C65.245,164.626 58.319,157.7 49.775,157.7 C41.2315,157.7 34.305,164.626 34.305,173.17 C34.305,181.714 41.2315,188.64 49.775,188.64 Z"></path>
                        </g>
                    </g>
                </g>
                <path d="M180.9555,184.48 C180.6855,184.91 180.4155,185.34 180.1505,185.77 C180.6505,184.93 180.9055,184.485 180.9055,184.485 L180.9555,184.48 Z" id="Path" fill="#004599" fill-rule="nonzero"></path>
                <path d="M271.93,158.07 L271.43,158.07 C269.297,158.0115 267.1965,157.5335 265.248,156.6635 C263.2995,155.793 261.542,154.547 260.075,152.9975 C258.608,151.4475 257.461,149.6235 256.6995,147.6305 C255.9375,145.637 255.576,143.513 255.635,141.38 L257.195,84.24 C257.313,79.93 259.1385,75.844 262.2695,72.88 C265.4005,69.916 269.5805,68.317 273.89,68.435 C278.2,68.553 282.2865,70.3785 285.2505,73.509 C288.2145,76.64 289.813,80.82 289.695,85.13 L288.13,142.27 C288.0145,146.493 286.258,150.505 283.2335,153.4545 C280.2095,156.4045 276.155,158.06 271.93,158.07 Z" id="Path" fill="#EF6E45" fill-rule="nonzero"></path>
                <path d="M282.4655,126.04 L285.5055,126.105 C289.041,126.18 292.55,125.475 295.782,124.0395 C299.014,122.604 301.89,120.4735 304.205,117.8 C306.52,115.1265 308.217,111.9755 309.1755,108.5715 C310.134,105.167 310.3305,101.5935 309.7505,98.105 L306.8855,80.835 C305.959,75.2535 303.0955,70.177 298.798,66.4975 C294.5,62.8175 289.043,60.7705 283.3855,60.715 L283.3855,60.715 C280.2255,60.6825 277.0905,61.273 274.159,62.4525 C271.2275,63.6315 268.5575,65.377 266.3005,67.5885 C264.0435,69.8 262.244,72.434 261.0055,75.341 C259.7665,78.248 259.1125,81.3705 259.0805,84.53 L258.9305,101.74 C258.867,108.072 261.302,114.1745 265.7075,118.723 C270.1135,123.272 276.1345,125.901 282.4655,126.04 L282.4655,126.04 Z" id="Path" fill="#EF6E45" fill-rule="nonzero"></path>
                <path d="M254.455,107.051 C257.3845,110.9635 262.93,111.7615 266.8415,108.833 C270.7535,105.9045 271.5495,100.359 268.6205,96.446 L265.615,92.4315 C262.686,88.519 257.14,87.721 253.2285,90.649 C249.317,93.5775 248.5205,99.1235 251.4495,103.036 L254.455,107.051 Z" id="Path" fill="#EF6E45" fill-rule="nonzero"></path>
                <line x1="254.845" y1="97.43" x2="260.93" y2="103.795" id="Path" stroke="#FFFFFF" stroke-width="1.5" stroke-linecap="square"></line>
                <polyline id="Path" stroke="#FFFFFF" stroke-width="1.5" stroke-linecap="square" points="297.26 88.83 299.03 102.765 294.075 103.42"></polyline>
                <path d="M268.145,102.725 L272.565,76.875 L273.61,70.74 C275.257,72.204 277.1335,73.3865 279.165,74.24 C286.54,77.38 307.61,73.935 309.165,58.8 C310.455,46.455 298.215,54.6 291.55,54.445 C281.085,54.195 273.33,48.755 259.855,57.715 C243.72,68.445 253.815,90.215 253.815,90.215 C253.815,90.215 261.045,86.645 268.145,102.725 Z" id="Path" fill="#24272D" fill-rule="nonzero"></path>
                <polygon id="Path" fill="#24272D" fill-rule="nonzero" points="288.4905 126.11 279.4255 126.115 288.3655 133.37"></polygon>
                <path d="M290.5055,96.515 C291.872,96.515 292.9805,95.407 292.9805,94.04 C292.9805,92.673 291.872,91.565 290.5055,91.565 C289.1385,91.565 288.0305,92.673 288.0305,94.04 C288.0305,95.407 289.1385,96.515 290.5055,96.515 Z" id="Path" fill="#FFFFFF" fill-rule="nonzero"></path>
                <path d="M305.095,96.515 C306.462,96.515 307.57,95.407 307.57,94.04 C307.57,92.673 306.462,91.565 305.095,91.565 C303.728,91.565 302.62,92.673 302.62,94.04 C302.62,95.407 303.728,96.515 305.095,96.515 Z" id="Path" fill="#FFFFFF" fill-rule="nonzero"></path>
                <path d="M283.895,106.365 C284.115,106.365 291.165,105.865 292.275,111.335 L283.895,106.365 Z" id="Path" fill="#FFFFFF" fill-rule="nonzero"></path>
                <path d="M604.755,217.995 C610.355,218.0135 615.715,220.25 619.665,224.214 C623.62,228.1785 625.84,233.5475 625.84,239.145 L625.84,299.06 L709.715,299.06 L709.715,239.21 C709.715,233.583 707.48,228.187 703.5,224.2085 C699.52,220.23 694.12,217.995 688.495,217.995 L604.755,217.995 Z" id="Path" fill="#EF6E45" fill-rule="nonzero"></path>
                <path d="M640.585,197.185 L640.585,264.905 L648.865,264.905 L648.865,201.07 L659.365,201.07 L659.365,193.035 L647.49,191.25 C646.635,191.1195 645.765,191.1755 644.93,191.414 C644.1,191.6525 643.33,192.0675 642.675,192.631 C642.02,193.195 641.49,193.8935 641.13,194.6795 C640.77,195.4655 640.585,196.3205 640.585,197.185 Z" id="Path" fill="#24272D" fill-rule="nonzero"></path>
                <path d="M212.0905,320.42 C212.0905,320.42 253.5905,349.515 260.9405,304.155 C267.4405,263.875 219.7855,314.655 219.7855,314.655" id="Path" fill="#EF6E45" fill-rule="nonzero"></path>
                <polygon id="Path" fill="#E1E2E5" fill-rule="nonzero" points="327.0895 200.907 156.913 194.042 152.151 312.091 322.3275 318.956"></polygon>
                <polyline id="Path" stroke="#889099" stroke-width="2" points="163.85 201.235 240.365 257.715 320.57 208.62"></polyline>
                <line x1="262.8405" y1="253.335" x2="313.8005" y2="309.115" id="Path" stroke="#889099" stroke-width="2"></line>
                <path d="M228.9305,302.975 C232.1125,303.9415 235.24,305.0785 238.3005,306.38 C243.0805,308.445 247.4355,311.965 257.7355,312.45 C267.6105,312.91 261.2605,320.79 254.2705,319.45 C249.5755,318.55 240.3505,315.795 238.6355,319.84 L210.6905,312.715" id="Path" fill="#EF6E45" fill-rule="nonzero"></path>
                <path d="M161.87,236.405 C157.2,269.905 208.64,324.445 208.64,324.445 L239.455,301.905 L214.02,241.26 L246.275,178.69 L180.93,184.485 C180.93,184.485 165.635,209.395 161.87,236.405 Z" id="Path" fill="#004599" fill-rule="nonzero"></path>
                <g id="Clipped" transform="translate(161.500000, 178.500000)">
                    <mask id="mask-4" fill="white">
                        <use xlink:href="#path-3"></use>
                    </mask>
                    <g id="Path"></g>
                    <g id="Group" mask="url(#mask-4)" fill="#3361C2" fill-rule="nonzero">
                        <g transform="translate(-3.000000, 0.000000)" id="Path">
                            <path d="M15.59,31.13 C24.134,31.13 31.06,24.204 31.06,15.66 C31.06,7.116 24.134,0.19 15.59,0.19 C7.0465,0.19 0.12,7.116 0.12,15.66 C0.12,24.204 7.0465,31.13 15.59,31.13 Z"></path>
                            <path d="M82.3305,31.13 C90.874,31.13 97.8005,24.204 97.8005,15.66 C97.8005,7.116 90.874,0.19 82.3305,0.19 C73.7865,0.19 66.8605,7.116 66.8605,15.66 C66.8605,24.204 73.7865,31.13 82.3305,31.13 Z"></path>
                            <path d="M16.2055,116.515 C24.749,116.515 31.6755,109.589 31.6755,101.045 C31.6755,92.501 24.749,85.575 16.2055,85.575 C7.6615,85.575 0.7355,92.501 0.7355,101.045 C0.7355,109.589 7.6615,116.515 16.2055,116.515 Z"></path>
                            <path d="M82.945,116.515 C91.489,116.515 98.415,109.589 98.415,101.045 C98.415,92.501 91.489,85.575 82.945,85.575 C74.4015,85.575 67.475,92.501 67.475,101.045 C67.475,109.589 74.4015,116.515 82.945,116.515 Z"></path>
                            <path d="M49.8955,73.245 C58.439,73.245 65.3655,66.319 65.3655,57.775 C65.3655,49.231 58.439,42.305 49.8955,42.305 C41.3515,42.305 34.4255,49.231 34.4255,57.775 C34.4255,66.319 41.3515,73.245 49.8955,73.245 Z"></path>
                        </g>
                    </g>
                </g>
            </g>
        </g>
    </g>
</svg>