<?xml version="1.0" encoding="UTF-8"?>
<svg width="111px" height="114px" viewBox="0 0 111 114" version="1.1" xmlns="http://www.w3.org/2000/svg" xmlns:xlink="http://www.w3.org/1999/xlink">
    <title>24A59A34-FCF2-49CF-8A8A-075E2177DBFE</title>
    <defs>
        <filter x="-4.8%" y="-22.6%" width="109.7%" height="145.1%" filterUnits="objectBoundingBox" id="filter-1">
            <feOffset dx="0" dy="5" in="SourceAlpha" result="shadowOffsetOuter1"></feOffset>
            <feGaussianBlur stdDeviation="10.5" in="shadowOffsetOuter1" result="shadowBlurOuter1"></feGaussianBlur>
            <feColorMatrix values="0 0 0 0 0   0 0 0 0 0   0 0 0 0 0  0 0 0 0.1 0" type="matrix" in="shadowBlurOuter1" result="shadowMatrixOuter1"></feColorMatrix>
            <feMerge>
                <feMergeNode in="shadowMatrixOuter1"></feMergeNode>
                <feMergeNode in="SourceGraphic"></feMergeNode>
            </feMerge>
        </filter>
    </defs>
    <g id="Page-1" stroke="none" stroke-width="1" fill="none" fill-rule="evenodd">
        <g id="unit-details" transform="translate(-372.000000, -655.000000)" fill="#000000" fill-rule="nonzero">
            <g id="Group-6" filter="url(#filter-1)" transform="translate(362.446875, 565.445620)">
                <g id="Group-4" transform="translate(24.310162, 126.826021)">
                    <g id="Group" transform="translate(23.093457, 0.000000)">
                        <path d="M17.6102044,0.559219835 C17.604864,0.559386089 17.603132,0.562242645 17.5985133,0.562242645 C16.9979102,0.568288264 16.3377693,0.764952278 15.8631843,1.30292176 C11.0448788,6.76498814 6.05799113,12.2745126 1.15409552,17.7273594 C0.197001622,18.7916908 0.245281381,20.4747914 1.2616634,21.477004 C2.27804974,22.4792166 3.88479145,22.4265744 4.84187091,21.3621372 L4.86318185,21.338257 L4.86318185,37.6251569 C4.86332295,37.7335636 4.90464884,37.8374568 4.97804128,37.9139132 C5.05143371,37.9903696 5.1508609,38.0331057 5.25438501,38.0326951 L30.3685196,38.0326951 C30.5835344,38.0326951 30.7579126,37.850311 30.7582072,37.6251569 L30.7582072,21.6390266 C31.72552,22.4239294 33.1226886,22.3825018 34.0410865,21.4769889 C35.0574728,20.474746 35.1057382,18.7916757 34.1486587,17.7273443 C34.1448593,17.7227192 34.1409613,17.7181838 34.1369676,17.7137417 C32.898913,16.4581118 31.6877622,15.1325643 30.4892118,13.7729044 L30.4892118,5.02776417 C30.4896088,4.918991 30.4485203,4.81455289 30.3750693,4.73763808 C30.3016182,4.66072328 30.2018833,4.61769723 30.0980086,4.61811297 L27.2272032,4.61811297 C27.1236784,4.61826073 27.0244639,4.66153543 26.9514506,4.73838884 C26.8784373,4.81524226 26.8376257,4.91935815 26.8380207,5.02776417 L26.8380207,9.5308441 C24.4087334,6.67640469 21.9758377,3.82695293 19.422423,1.28310724 C18.9663416,0.828748681 18.3808936,0.63324845 17.8018396,0.60406322 C17.7899223,0.598128803 17.7777248,0.592832063 17.7652942,0.588193468 C17.7433122,0.587437765 17.7258622,0.562348443 17.703909,0.562197302 C17.6857084,0.561683425 17.6681574,0.558827088 17.6597716,0.558827088 C17.6601959,0.558827088 17.6525549,0.559219835 17.6521219,0.558827088 C17.6495239,0.558827088 17.6398535,0.558827088 17.614061,0.558827088 C17.6127139,0.558827088 17.6113667,0.558827088 17.6100196,0.558827088 L17.6102044,0.559219835 Z M17.6295018,1.37427519 C17.6306565,1.37428056 17.6318112,1.37428056 17.6329659,1.37427519 C17.6400382,1.37406359 17.6401826,1.37471349 17.6446569,1.37427519 C17.6651524,1.37474372 17.6804373,1.377298 17.6867736,1.377298 C17.6906704,1.37735921 17.6945679,1.37735921 17.6984647,1.377298 C18.127238,1.38032081 18.5506132,1.54229808 18.8852663,1.87568378 C22.1082469,5.08651248 25.1617793,8.8192293 28.2853137,12.4512866 C28.7162087,12.9532544 29.1491822,13.451746 29.5837577,13.9480158 C29.6603125,14.0355261 29.7358859,14.1243816 29.8125994,14.2115595 C31.0512315,15.618617 32.3065485,16.9942071 33.5942974,18.3002122 L33.581163,18.2881209 C34.2514939,19.0335458 34.2184414,20.1807022 33.5065711,20.8825987 C32.7947009,21.5845405 31.6987864,21.5494456 31.0283545,20.8040056 L17.936385,6.24297909 C17.8627327,6.16097219 17.7600011,6.11446778 17.6524943,6.11446778 C17.5449874,6.11446778 17.4422558,6.16097219 17.3686035,6.24297909 L4.27418034,20.8040056 C3.60384944,21.5494608 2.50839687,21.5845556 1.79654106,20.8825987 C1.08468525,20.180672 1.0516183,19.0335458 1.72195352,18.2881209 C6.62469446,12.8360298 11.6117265,7.32257566 16.433929,1.8546148 C16.7258015,1.52375314 17.1641297,1.37991273 17.606023,1.3764365 C17.6136562,1.37566421 17.6212659,1.37465617 17.6288422,1.37341369 L17.6295018,1.37427519 Z M27.6171333,5.43526917 L29.7091119,5.43526917 L29.7091119,12.8712304 C29.0218795,12.0802518 28.336509,11.2874292 27.6530725,10.4856288 C27.6410928,10.4720262 27.6290409,10.457819 27.6170467,10.4437629 L27.6170467,10.4432339 L27.6171333,5.43526917 Z M17.6391722,7.22416808 L29.9009319,20.8617262 C29.9268399,20.890594 29.9534118,20.9119048 29.9795796,20.9382033 L29.9795796,37.2145233 L23.783172,37.2145233 L23.783172,25.7394834 C23.7828779,25.5145356 23.6088071,25.3322562 23.3939896,25.3319482 L12.2271484,25.3319482 C12.0123308,25.3322562 11.8382601,25.5145356 11.8379659,25.7394834 L11.8379659,37.2145233 L5.64357904,37.2145233 L5.64357904,20.5648862 L17.6391722,7.22416808 Z M12.2328496,15.8109131 C12.0178462,15.8112299 11.8436787,15.9938196 11.8436787,16.2189622 L11.8436787,22.8998255 C11.8432865,23.0082289 11.8840961,23.1123425 11.9571063,23.1891955 C12.0301165,23.2660485 12.1293273,23.3093249 12.2328496,23.3094767 L23.2409232,23.3094767 C23.344448,23.309329 23.4436625,23.2660543 23.5166758,23.1892008 C23.5896892,23.1123474 23.6305007,23.0082315 23.6301086,22.8998255 L23.6301086,16.2189622 C23.6301086,15.9938137 23.4559322,15.8112216 23.2409232,15.8109131 L12.2328496,15.8109131 Z M12.6225372,16.6264974 L22.849619,16.6264974 L22.849619,22.4924112 L12.6223929,22.4924112 L12.6225372,16.6264974 Z M12.6184814,26.1489532 L23.0049081,26.1489532 L23.0049081,37.2144023 L12.6184814,37.2144023 L12.6184814,26.1489532 Z M21.0869965,31.0132589 C20.5680288,31.0132589 20.1381585,31.4618137 20.1381585,32.0052545 C20.1381585,32.5486952 20.5680432,32.9972349 21.0869965,32.9972349 C21.6059498,32.9972349 22.0343045,32.5486952 22.0343045,32.0052545 C22.0343045,31.4618137 21.6059498,31.0132589 21.0869965,31.0132589 Z M21.0869965,31.8283143 C21.184754,31.8283143 21.255954,31.9028266 21.255954,32.0052545 C21.255954,32.1077277 21.1847395,32.1816505 21.0869965,32.1816505 C20.9892534,32.1816505 20.9185442,32.1075917 20.9185442,32.0052545 C20.9185442,31.9027812 20.989239,31.8283143 21.0869965,31.8283143 Z" id="Shape"></path>
                    </g>
                </g>
            </g>
        </g>
    </g>
</svg>