<?xml version="1.0" encoding="UTF-8"?>
<svg width="39px" height="41px" viewBox="0 0 39 41" version="1.1" xmlns="http://www.w3.org/2000/svg" xmlns:xlink="http://www.w3.org/1999/xlink">
    <title>8C2ED665-815A-4472-BC4F-C10A268404FD</title>
    <g id="Page-1" stroke="none" stroke-width="1" fill="none" fill-rule="evenodd">
        <g id="unit-details" transform="translate(-520.000000, -692.000000)" fill="#000000">
            <g id="Group-8" transform="translate(499.824257, 692.886752)">
                <g id="Group" transform="translate(20.781231, 0.000000)">
                    <path d="M5.11284605,28.6344138 L4.33292038,28.6344138 C2.71117018,28.6344138 1.38653452,29.9590495 1.38653452,31.5807997 L1.38653452,32.3607254 L0.618988626,32.3607254 C0.359013403,32.3607254 0.14855727,32.5711815 0.14855727,32.8311567 L0.14855727,36.5450885 C0.14855727,36.8050637 0.359013403,37.0155198 0.618988626,37.0155198 L2.63689155,37.0155198 L2.63689155,39.0334227 C2.63689155,39.293398 2.84734768,39.5038541 3.1073229,39.5038541 C3.36729812,39.5038541 3.57775426,39.293398 3.57775426,39.0334227 L3.57775426,37.0155198 L33.5987026,37.0155198 L33.5987026,39.0334227 C33.5987026,39.293398 33.8091587,39.5038541 34.069134,39.5038541 C34.3291092,39.5038541 34.5395653,39.293398 34.5395653,39.0334227 L34.5395653,37.0155198 L36.5574682,37.0155198 C36.8174435,37.0155198 37.0278996,36.8050637 37.0278996,36.5450885 L37.0278996,32.8311567 C37.0278996,32.5711815 36.8174435,32.3607254 36.5574682,32.3607254 L35.7775426,32.3607254 L35.7775426,31.5684199 C35.7775426,29.9466697 34.4529069,28.6220341 32.8311567,28.6220341 L32.051231,28.6220341 L32.051231,25.3785337 C32.051231,22.3950085 29.6247956,19.9561933 26.6288907,19.9561933 L10.5351864,19.9561933 C7.55166124,19.9561933 5.11284605,22.3826287 5.11284605,25.3785337 L5.11284605,28.6344138 Z M6.04132899,25.3785337 C6.04132899,22.9025792 8.05923191,20.8846762 10.5351864,20.8846762 L26.6288907,20.8846762 C29.1048452,20.8846762 31.1227481,22.9025792 31.1227481,25.3785337 L31.1227481,28.6344138 L28.3372993,28.6344138 L28.3372993,27.8544882 C28.3372993,26.9136255 27.5697534,26.1460796 26.6288907,26.1460796 L22.9149589,26.1460796 C21.9740962,26.1460796 21.2065503,26.9136255 21.2065503,27.8544882 L21.2065503,28.6344138 L15.945147,28.6344138 L15.945147,27.8544882 C15.945147,26.9136255 15.1776011,26.1460796 14.2367384,26.1460796 L10.5228066,26.1460796 C9.58194393,26.1460796 8.81439803,26.9136255 8.81439803,27.8544882 L8.81439803,28.6344138 L6.04132899,28.6344138 L6.04132899,25.3785337 Z M27.3964366,27.8544882 L27.3964366,28.6344138 L22.1350333,28.6344138 L22.1350333,27.8544882 C22.1350333,27.4335759 22.4816669,27.0745625 22.9149589,27.0745625 L26.6288907,27.0745625 C27.0374232,27.0869423 27.3964366,27.4335759 27.3964366,27.8544882 Z M15.0166641,27.8544882 L15.0166641,28.6344138 L9.75526074,28.6344138 L9.75526074,27.8544882 C9.75526074,27.4335759 10.1018944,27.0745625 10.5351864,27.0745625 L14.2491182,27.0745625 C14.6576507,27.0869423 15.0166641,27.4335759 15.0166641,27.8544882 Z M9.28482939,29.5628968 L15.4747156,29.5628968 L21.6646019,29.5628968 L27.8544882,29.5628968 L31.5684199,29.5628968 L32.8063972,29.5628968 C33.9205767,29.5628968 34.8243001,30.4666202 34.8243001,31.5807997 L34.8243001,32.8187769 C34.8243001,33.0787522 35.0347562,33.2892083 35.2947314,33.2892083 L36.0746571,33.2892083 L36.0746571,36.0746571 L1.08941998,36.0746571 L1.08941998,33.2892083 L1.85696588,33.2892083 C2.1169411,33.2892083 2.32739723,33.0787522 2.32739723,32.8187769 L2.32739723,31.5807997 C2.32739723,30.4666202 3.23112063,29.5628968 4.34530015,29.5628968 L5.58327741,29.5628968 L9.28482939,29.5628968 Z" id="Shape" fill-rule="nonzero"></path>
                    <path d="M11.3027323,8.04685214 C11.3027323,12.4045321 14.8433472,15.945147 19.2010272,15.945147 C23.5587071,15.945147 27.099322,12.4045321 27.099322,8.04685214 C27.099322,3.68917221 23.5587071,0.14855727 19.2010272,0.14855727 C14.8433472,0.14855727 11.3027323,3.68917221 11.3027323,8.04685214 Z M26.1584593,8.04685214 C26.1584593,11.8845816 23.0387567,15.0166641 19.1886474,15.0166641 C15.3385381,15.0166641 12.2188355,11.8969614 12.2188355,8.04685214 C12.2188355,4.19674288 15.3385381,1.07704021 19.1886474,1.07704021 C23.0387567,1.07704021 26.1584593,4.20912266 26.1584593,8.04685214 Z" id="Shape" fill-rule="nonzero"></path>
                    <path d="M18.7305958,3.09494313 L18.7305958,7.58880055 L16.7126929,7.58880055 C16.4527177,7.58880055 16.2422615,7.79925669 16.2422615,8.05923191 C16.2422615,8.31920713 16.4527177,8.52966326 16.7126929,8.52966326 L19.1886474,8.52966326 C19.4486226,8.52966326 19.6590788,8.31920713 19.6590788,8.05923191 L19.6590788,3.1073229 C19.6590788,2.84734768 19.4486226,2.63689155 19.1886474,2.63689155 C18.9286722,2.63689155 18.7305958,2.83496791 18.7305958,3.09494313 Z" id="Path"></path>
                </g>
            </g>
        </g>
    </g>
</svg>