<?xml version="1.0" encoding="UTF-8"?>
<svg width="115px" height="105px" viewBox="0 0 115 105" version="1.1" xmlns="http://www.w3.org/2000/svg" xmlns:xlink="http://www.w3.org/1999/xlink">
    <title>953303B7-9FED-4433-B851-93FB39560CB2</title>
    <defs>
        <filter x="-4.8%" y="-22.6%" width="109.7%" height="145.1%" filterUnits="objectBoundingBox" id="filter-1">
            <feOffset dx="0" dy="5" in="SourceAlpha" result="shadowOffsetOuter1"></feOffset>
            <feGaussianBlur stdDeviation="10.5" in="shadowOffsetOuter1" result="shadowBlurOuter1"></feGaussianBlur>
            <feColorMatrix values="0 0 0 0 0   0 0 0 0 0   0 0 0 0 0  0 0 0 0.1 0" type="matrix" in="shadowBlurOuter1" result="shadowMatrixOuter1"></feColorMatrix>
            <feMerge>
                <feMergeNode in="shadowMatrixOuter1"></feMergeNode>
                <feMergeNode in="SourceGraphic"></feMergeNode>
            </feMerge>
        </filter>
    </defs>
    <g id="Page-1" stroke="none" stroke-width="1" fill="none" fill-rule="evenodd">
        <g id="unit-details" transform="translate(-621.000000, -663.000000)" fill="#000000">
            <g id="Group-6" filter="url(#filter-1)" transform="translate(362.446875, 565.445620)">
                <g id="Group-3" transform="translate(295.902329, 135.165155)">
                    <g id="Group" transform="translate(0.317535, 0.000000)">
                        <path d="M31.0381259,27.7388544 L7.58559445,27.7388544 C6.21618131,27.7388544 4.99710658,27.0079391 4.62091416,25.961434 L1.74196833,17.9527518 C1.71962541,17.8904598 1.7353001,17.8234185 1.78440256,17.7716577 C1.83350502,17.7198968 1.91031964,17.6895424 1.99181067,17.6895424 L36.6319963,17.6895424 C36.7134873,17.6895424 36.7903019,17.7198968 36.839491,17.7716577 C36.8885069,17.8234185 36.9042681,17.8904598 36.8818386,17.9527518 L34.0028928,25.961434 C33.6267004,27.0079391 32.4075391,27.7388544 31.0381259,27.7388544 Z M2.33622072,18.1025278 L5.12051224,25.8479318 C5.43331311,26.718161 6.44697155,27.325869 7.58559445,27.325869 L31.0381259,27.325869 C32.1766622,27.325869 33.1904938,26.718161 33.5032081,25.8479318 L36.2874996,18.1025278 L2.33622072,18.1025278 Z" id="Shape" fill-rule="nonzero"></path>
                        <path d="M9.78602564,29.1155414 C9.69067853,29.1155414 9.59896863,29.0736922 9.55341679,29.0013509 C9.48924585,28.8993435 9.54120613,28.7753102 9.66954801,28.7243065 L13.1335666,27.3476884 C13.2619085,27.2968224 13.4180491,27.3381209 13.4821334,27.4400595 C13.5463044,27.5420669 13.4943441,27.6661002 13.3660022,27.7171039 L9.90198366,29.093722 C9.86474546,29.1084518 9.82508245,29.1155414 9.78602564,29.1155414 Z" id="Path"></path>
                        <path d="M29.703786,29.1155414 C29.6647292,29.1155414 29.6250661,29.1084518 29.5877413,29.093722 L26.1237228,27.7171039 C25.9954675,27.6661002 25.9434206,27.5420669 26.007505,27.4400595 C26.0718491,27.3381209 26.2279897,27.29696 26.3560718,27.3476884 L29.8200904,28.7243065 C29.9483457,28.7753102 30.0003926,28.8993435 29.9363082,29.0013509 C29.8907564,29.0736922 29.7990465,29.1155414 29.703786,29.1155414 Z" id="Path"></path>
                        <path d="M10.6518571,7.08958315 L5.45582923,7.08958315 C5.31233227,7.08958315 5.19602784,6.99714324 5.19602784,6.88309043 L5.19602784,5.50647235 C5.19602784,4.25402521 6.47806111,3.2350525 8.05384316,3.2350525 C9.6296252,3.2350525 10.9116585,4.25402521 10.9116585,5.50647235 L10.9116585,6.88309043 C10.9116585,6.99714324 10.795354,7.08958315 10.6518571,7.08958315 Z M5.71563063,6.67659772 L10.3920557,6.67659772 L10.3920557,5.50647235 C10.3920557,4.48171784 9.34315086,3.64803793 8.05384316,3.64803793 C6.76453545,3.64803793 5.71563063,4.48171784 5.71563063,5.50647235 L5.71563063,6.67659772 Z" id="Shape" fill-rule="nonzero"></path>
                        <path d="M2.85781531,15.3492917 C2.71431834,15.3492917 2.59801392,15.2568518 2.59801392,15.142799 L2.59801392,3.44154522 C2.59801392,2.18909808 3.88004719,1.17012537 5.45582923,1.17012537 C7.03161128,1.17012537 8.31364455,2.18909808 8.31364455,3.44154522 C8.31364455,3.55559802 8.19734012,3.64803793 8.05384316,3.64803793 C7.91034619,3.64803793 7.79404176,3.55559802 7.79404176,3.44154522 C7.79404176,2.41679071 6.74513694,1.5831108 5.45582923,1.5831108 C4.16652153,1.5831108 3.11761671,2.41679071 3.11761671,3.44154522 L3.11761671,15.142799 C3.11761671,15.2568518 3.00131228,15.3492917 2.85781531,15.3492917 Z" id="Path"></path>
                        <path d="M6.32183387,11.2194374 C6.17833691,11.2194374 6.06203248,11.1269975 6.06203248,11.0129447 L6.06203248,8.94801756 C6.06203248,8.83396475 6.17833691,8.74152485 6.32183387,8.74152485 C6.46533084,8.74152485 6.58163527,8.83396475 6.58163527,8.94801756 L6.58163527,11.0129447 C6.58163527,11.1269975 6.46533084,11.2194374 6.32183387,11.2194374 Z" id="Path"></path>
                        <path d="M8.9198478,12.5960555 C8.77635083,12.5960555 8.6600464,12.5036156 8.6600464,12.3895628 L8.6600464,10.3246356 C8.6600464,10.2105828 8.77635083,10.1181429 8.9198478,10.1181429 C9.06334476,10.1181429 9.17964919,10.2105828 9.17964919,10.3246356 L9.17964919,12.3895628 C9.17964919,12.5036156 9.06334476,12.5960555 8.9198478,12.5960555 Z" id="Path"></path>
                        <path d="M33.5758659,15.3492917 L14.5804871,15.3492917 C14.487738,15.3492917 14.4020902,15.310058 14.3556723,15.2462518 C14.0288422,14.7974055 13.8560742,14.2856477 13.8560742,13.7661809 C13.8560742,12.1342001 15.5265972,10.806452 17.5798942,10.806452 C18.3760989,10.806452 19.1517792,11.0104668 19.7896782,11.3844251 C20.8089657,10.5774516 22.1995094,10.1181429 23.6419267,10.1181429 C24.0863603,10.1181429 24.5291484,10.1614376 24.9611116,10.2469944 C25.9319894,8.88958012 27.7304212,8.05321581 29.7039592,8.05321581 C32.7122861,8.05321581 35.1597884,9.99851482 35.1597884,12.3895628 C35.1597884,13.4578184 34.6659926,14.4845002 33.7694179,15.2805296 C33.7201423,15.324306 33.6497361,15.3492917 33.5758659,15.3492917 Z M14.7342896,14.9363062 L33.4580027,14.9363062 C34.221126,14.2262466 34.6401856,13.3255254 34.6401856,12.3895628 C34.6401856,10.2262075 32.4258117,8.46620123 29.7039592,8.46620123 C27.8549527,8.46620123 26.1759429,9.27764876 25.3219757,10.5839217 C25.264906,10.6712681 25.1380363,10.7145627 25.0190473,10.6870304 C24.5705435,10.5835775 24.1071444,10.5311284 23.6419267,10.5311284 C22.2640267,10.5311284 20.9383468,10.9944292 20.0051402,11.8022287 C19.9108323,11.8837245 19.75244,11.8917777 19.6460947,11.8202624 C19.0689892,11.4328132 18.3352234,11.2194374 17.5798942,11.2194374 C15.8130715,11.2194374 14.375677,12.3618928 14.375677,13.7661809 C14.375677,14.1737975 14.4992559,14.5759076 14.7342896,14.9363062 Z" id="Shape" fill-rule="nonzero"></path>
                        <path d="M38.3640056,18.1025278 L0.259801392,18.1025278 C0.116304423,18.1025278 0,18.0100879 0,17.8960351 L0,15.142799 C0,15.0287461 0.116304423,14.9363062 0.259801392,14.9363062 L38.3640056,14.9363062 C38.5075025,14.9363062 38.623807,15.0287461 38.623807,15.142799 L38.623807,17.8960351 C38.623807,18.0100879 38.5075025,18.1025278 38.3640056,18.1025278 Z M0.519602784,17.6895424 L38.1042042,17.6895424 L38.1042042,15.3492917 L0.519602784,15.3492917 L0.519602784,17.6895424 Z" id="Shape" fill-rule="nonzero"></path>
                        <path d="M29.7039592,20.855764 L3.72381995,20.855764 C3.58032298,20.855764 3.46401856,20.7633241 3.46401856,20.6492713 C3.46401856,20.5352185 3.58032298,20.4427786 3.72381995,20.4427786 L29.7039592,20.4427786 C29.8474561,20.4427786 29.9637606,20.5352185 29.9637606,20.6492713 C29.9637606,20.7633241 29.8474561,20.855764 29.7039592,20.855764 Z" id="Path"></path>
                        <rect id="Rectangle" x="16.7138896" y="2.75323617" width="1.73200928" height="1.37661809"></rect>
                        <rect id="Rectangle" x="18.4458988" y="1.37661809" width="1.73200928" height="1.37661809"></rect>
                        <rect id="Rectangle" x="14.9818803" y="1.37661809" width="1.73200928" height="1.37661809"></rect>
                        <rect id="Rectangle" x="16.7138896" y="0" width="1.73200928" height="1.37661809"></rect>
                        <rect id="Rectangle" x="34.899987" y="6.88309043" width="1.73200928" height="1.37661809"></rect>
                        <rect id="Rectangle" x="36.6319963" y="5.50647235" width="1.73200928" height="1.37661809"></rect>
                        <rect id="Rectangle" x="33.1679777" y="5.50647235" width="1.73200928" height="1.37661809"></rect>
                        <rect id="Rectangle" x="34.899987" y="4.12985426" width="1.73200928" height="1.37661809"></rect>
                    </g>
                </g>
            </g>
        </g>
    </g>
</svg>