<?xml version="1.0" encoding="UTF-8"?>
<svg width="104px" height="107px" viewBox="0 0 104 107" version="1.1" xmlns="http://www.w3.org/2000/svg" xmlns:xlink="http://www.w3.org/1999/xlink">
    <title>B18C8A22-6212-4537-90B4-C51A70B34EF4</title>
    <defs>
        <filter x="-4.8%" y="-22.6%" width="109.7%" height="145.1%" filterUnits="objectBoundingBox" id="filter-1">
            <feOffset dx="0" dy="5" in="SourceAlpha" result="shadowOffsetOuter1"></feOffset>
            <feGaussianBlur stdDeviation="10.5" in="shadowOffsetOuter1" result="shadowBlurOuter1"></feGaussianBlur>
            <feColorMatrix values="0 0 0 0 0   0 0 0 0 0   0 0 0 0 0  0 0 0 0.1 0" type="matrix" in="shadowBlurOuter1" result="shadowMatrixOuter1"></feColorMatrix>
            <feMerge>
                <feMergeNode in="shadowMatrixOuter1"></feMergeNode>
                <feMergeNode in="SourceGraphic"></feMergeNode>
            </feMerge>
        </filter>
    </defs>
    <g id="Page-1" stroke="none" stroke-width="1" fill="none" fill-rule="evenodd">
        <g id="unit-details" transform="translate(-767.000000, -661.000000)" fill="#000000" fill-rule="nonzero">
            <g id="Group-6" filter="url(#filter-1)" transform="translate(362.446875, 565.445620)">
                <g id="noun_area_1455348" transform="translate(441.614047, 133.381712)">
                    <g id="Group" transform="translate(0.000000, 0.231361)">
                        <path d="M0.281451508,0.132972199 C0.115842865,0.166059979 -0.00297108482,0.319180791 -5.44991308e-05,0.495691252 L-5.44991308e-05,4.84831626 C-5.44991308e-05,5.0486321 0.155097156,5.21101529 0.346401856,5.21103532 L2.42481299,5.21103532 L2.42481299,13.1908436 L0.346401856,13.1908436 C0.155097156,13.1908636 -5.44991308e-05,13.3532468 -5.44991308e-05,13.5535627 L-5.44991308e-05,17.9061949 C-5.44991308e-05,18.1065037 0.155103919,18.2688758 0.346401856,18.2688958 L2.42481299,18.2688958 L2.42481299,26.248715 L0.346401856,26.248715 C0.155103919,26.248735 -5.44991308e-05,26.4111072 -5.44991308e-05,26.6114159 L-5.44991308e-05,30.9640446 C-5.44991308e-05,31.1643675 0.155090392,31.3267818 0.346401856,31.3267818 L4.50322413,31.3267818 C4.69453559,31.3267818 4.84961665,31.1643675 4.84962599,30.9640446 L4.84962599,29.1504674 L12.4704668,29.1504674 L12.4704668,30.9640446 C12.4704762,31.1643675 12.6255572,31.3267818 12.8168687,31.3267818 L16.973691,31.3267818 C17.1650024,31.3267818 17.3200835,31.1643675 17.3200928,30.9640446 L17.3200928,29.1504674 L24.9409336,29.1504674 L24.9409336,30.9640446 C24.940943,31.1643675 25.096024,31.3267818 25.2873355,31.3267818 L29.4441578,31.3267818 C29.6354692,31.3267818 29.7906141,31.1643675 29.7906141,30.9640446 L29.7906141,26.6114159 C29.7906141,26.4111072 29.6354557,26.248735 29.4441578,26.248715 L27.3657466,26.248715 L27.3657466,18.2688958 L29.4441578,18.2688958 C29.6354557,18.2688758 29.7906141,18.1065037 29.7906141,17.9061949 L29.7906141,13.5535627 C29.7906141,13.3532468 29.6354625,13.1908636 29.4441578,13.1908436 L27.3657466,13.1908436 L27.3657466,5.21103532 L29.4441578,5.21103532 C29.6354625,5.21101529 29.7906141,5.0486321 29.7906141,4.84831626 L29.7906141,0.495691252 C29.7935307,0.319180791 29.6747168,0.166059979 29.5091081,0.132972199 C29.4875058,0.130842418 29.4657601,0.130842418 29.4441578,0.132972199 L25.2873355,0.132972199 C25.0960308,0.132992228 24.9409525,0.295375418 24.9409336,0.495691252 L24.9409336,2.30928652 L17.3200928,2.30928652 L17.3200928,0.495691252 C17.3200739,0.295375418 17.1649957,0.132992228 16.973691,0.132972199 L12.8168687,0.132972199 C12.7952663,0.130842418 12.7735207,0.130842418 12.7519183,0.132972199 C12.5863097,0.166059979 12.4674957,0.319180791 12.4704668,0.495691252 L12.4704668,2.30928652 L4.84962599,2.30928652 L4.84962599,0.495691252 C4.84960709,0.295375418 4.69452883,0.132992228 4.50322413,0.132972199 L0.346401856,0.132972199 C0.324799512,0.130842418 0.303053852,0.130842418 0.281451508,0.132972199 Z M0.692803712,0.858410306 L4.15682227,0.858410306 L4.15682227,4.48559721 L0.692803712,4.48559721 L0.692803712,0.858410306 Z M13.1632705,0.858410306 L16.6272891,0.858410306 L16.6272891,4.48559721 L13.1632705,4.48559721 L13.1632705,0.858410306 Z M25.6337374,0.858410306 L29.0977559,0.858410306 L29.0977559,4.48559721 L25.6337374,4.48559721 L25.6337374,0.858410306 Z M4.84962599,3.034721 L12.4704668,3.034721 L12.4704668,4.84831626 C12.4704857,5.0486321 12.625564,5.21101529 12.8168687,5.21103532 L16.973691,5.21103532 C17.1649957,5.21101529 17.3200739,5.0486321 17.3200928,4.84831626 L17.3200928,3.034721 L24.9409336,3.034721 L24.9409336,4.84831626 C24.9409525,5.0486321 25.0960308,5.21101529 25.2873355,5.21103532 L26.6729429,5.21103532 L26.6729429,13.1908436 L25.2873355,13.1908436 C25.0960308,13.1908636 24.9409525,13.3532468 24.9409336,13.5535627 L24.9409336,17.9061949 C24.9409621,18.1065037 25.0960376,18.2688758 25.2873355,18.2688958 L26.6729429,18.2688958 L26.6729429,26.248715 L25.2873355,26.248715 C25.0960376,26.248735 24.9409621,26.4111072 24.9409336,26.6114159 L24.9409336,28.4250293 L17.3200928,28.4250293 L17.3200928,26.6114159 C17.3200643,26.4111072 17.1649889,26.248735 16.973691,26.248715 L12.8168687,26.248715 C12.6255707,26.248735 12.4704953,26.4111072 12.4704668,26.6114159 L12.4704668,28.4250293 L4.84962599,28.4250293 L4.84962599,26.6114159 C4.84959752,26.4111072 4.69452207,26.248735 4.50322413,26.248715 L3.11761671,26.248715 L3.11761671,18.2688958 L4.50322413,18.2688958 C4.69452207,18.2688758 4.84959752,18.1065037 4.84962599,17.9061949 L4.84962599,13.5535627 C4.84960709,13.3532468 4.69452883,13.1908636 4.50322413,13.1908436 L3.11761671,13.1908436 L3.11761671,5.21103532 L4.50322413,5.21103532 C4.69452883,5.21101529 4.84960709,5.0486321 4.84962599,4.84831626 L4.84962599,3.034721 L4.84962599,3.034721 Z M0.692803712,13.9162817 L4.15682227,13.9162817 L4.15682227,17.5434577 L0.692803712,17.5434577 L0.692803712,13.9162817 Z M25.6337374,13.9162817 L29.0977559,13.9162817 L29.0977559,17.5434577 L25.6337374,17.5434577 L25.6337374,13.9162817 Z M0.692803712,26.9741531 L4.15682227,26.9741531 L4.15682227,30.6013437 L0.692803712,30.6013437 L0.692803712,26.9741531 Z M13.1632705,26.9741531 L16.6272891,26.9741531 L16.6272891,30.6013437 L13.1632705,30.6013437 L13.1632705,26.9741531 Z M25.6337374,26.9741531 L29.0977559,26.9741531 L29.0977559,30.6013437 L25.6337374,30.6013437 L25.6337374,26.9741531 Z" id="Shape"></path>
                    </g>
                </g>
            </g>
        </g>
    </g>
</svg>