<?xml version="1.0" encoding="UTF-8"?>
<svg width="111px" height="112px" viewBox="0 0 111 112" version="1.1" xmlns="http://www.w3.org/2000/svg" xmlns:xlink="http://www.w3.org/1999/xlink">
    <title>9688EDF2-2E20-4345-BC08-4C7C377FC285</title>
    <defs>
        <filter x="-4.8%" y="-22.6%" width="109.7%" height="145.1%" filterUnits="objectBoundingBox" id="filter-1">
            <feOffset dx="0" dy="5" in="SourceAlpha" result="shadowOffsetOuter1"></feOffset>
            <feGaussianBlur stdDeviation="10.5" in="shadowOffsetOuter1" result="shadowBlurOuter1"></feGaussianBlur>
            <feColorMatrix values="0 0 0 0 0   0 0 0 0 0   0 0 0 0 0  0 0 0 0.1 0" type="matrix" in="shadowBlurOuter1" result="shadowMatrixOuter1"></feColorMatrix>
            <feMerge>
                <feMergeNode in="shadowMatrixOuter1"></feMergeNode>
                <feMergeNode in="SourceGraphic"></feMergeNode>
            </feMerge>
        </filter>
    </defs>
    <g id="Page-1" stroke="none" stroke-width="1" fill="none" fill-rule="evenodd">
        <g id="unit-details" transform="translate(-904.000000, -656.000000)" fill="#000000" fill-rule="nonzero">
            <g id="Group-6" filter="url(#filter-1)" transform="translate(362.446875, 565.445620)">
                <g id="noun_north_1342743" transform="translate(579.128556, 128.004055)">
                    <path d="M30.2878541,5.91345049 C30.2847989,5.90598536 30.2847989,5.89798701 30.2786883,5.89158832 C30.2725778,5.88518964 30.2649397,5.88518964 30.2578107,5.8819903 C27.0940844,2.57760322 22.7311669,0.531090775 17.9196347,0.531090775 C13.1070842,0.531090775 8.74314821,2.57866967 5.57891274,5.88518964 C5.57178379,5.88732253 5.56516405,5.88838898 5.55905352,5.89372122 C5.55396142,5.9001199 5.55345221,5.90705181 5.55090615,5.91451694 C2.39481806,9.2274356 0.439958069,13.7971624 0.439958069,18.8345265 C0.439958069,23.8729569 2.39481806,28.443217 5.55141536,31.7556024 C5.55396142,31.764134 5.55447063,31.7721323 5.56109037,31.7795975 C5.5672009,31.7859962 5.57534827,31.7870626 5.58349564,31.7891955 C8.74722189,35.0925161 13.1096302,37.1390286 17.920144,37.1390286 C22.7316761,37.1390286 27.0945937,35.0914497 30.2593383,31.7870626 C30.2664673,31.7849297 30.2751239,31.7838633 30.2812344,31.7774646 C30.2873449,31.7699994 30.2883633,31.7620011 30.2914186,31.7534695 C33.4459791,28.4410841 35.4003298,23.8724237 35.4003298,18.8345265 C35.4003298,13.796096 33.4449607,9.22636915 30.2878541,5.91345049 Z M30.2384607,31.656956 L17.9919427,18.8345265 L30.2359146,6.01103043 C33.3619593,9.30315336 35.2969601,13.836621 35.2969601,18.8345265 C35.2969601,23.8324319 33.3634869,28.3648331 30.2384607,31.656956 Z M5.60182722,6.01316332 L17.847836,18.8345265 L5.60386407,31.6590889 C2.47781941,28.366966 0.542818637,23.8334984 0.542818637,18.8345265 C0.542818637,13.8376874 2.47731019,9.30528626 5.60182722,6.01316332 Z M5.67617199,31.7342735 L17.9196347,18.9107774 L30.1656436,31.7321406 C27.0217765,35.0056007 22.6934853,37.0318506 17.920144,37.0318506 C13.147821,37.0318506 8.82003903,35.0061339 5.67617199,31.7342735 Z" id="Shape"></path>
                </g>
            </g>
        </g>
    </g>
</svg>