<?xml version="1.0" encoding="UTF-8"?>
<svg width="42px" height="45px" viewBox="0 0 42 45" version="1.1" xmlns="http://www.w3.org/2000/svg" xmlns:xlink="http://www.w3.org/1999/xlink">
    <title>045B804C-9ED3-40E4-85DB-B5C7BCB42C1C</title>
    <g id="Page-1" stroke="none" stroke-width="1" fill="none" fill-rule="evenodd">
        <g id="unit-details" transform="translate(-1165.000000, -696.000000)" fill="#000000" fill-rule="nonzero">
            <g id="Group" transform="translate(1165.009056, 696.978123)">
                <path d="M40.916118,31.6121584 L40.7761952,11.8803435 L40.5951984,11.5341476 L20.7573131,0 L20.5754135,0 L20.393514,0 L0.538928239,11.5355017 L0.357931402,11.8690594 L0.487472779,31.6089988 L0.605730064,31.8405484 L20.4855922,43.3309137 L20.8493913,43.3309137 L40.7874793,31.8509297 L40.916118,31.6121584 Z M33.2718226,26.952731 L27.2149733,23.4487948 L27.4447175,9.17757779 L33.5002126,12.6932495 L33.2718226,26.952731 Z M40.197547,30.9594865 L33.7516222,27.2303197 L33.9867827,12.5388831 L33.8658172,12.3253881 L27.3305224,8.54250909 L26.9667233,8.74833093 L26.6471578,23.1707547 L20.7627295,19.8175739 L20.7627295,1.01240874 L39.9632892,12.0933872 L40.197547,30.9594865 Z M20.3113658,1.01240874 L20.3113658,19.9060412 L13.7070124,23.7277375 L1.23402831,30.9509106 L1.14736649,12.0920331 L20.3113658,1.01240874 Z M20.6679431,42.6962964 L1.56668335,31.6180261 L3.27780308,30.6205123 L20.6210013,20.5618726 L38.2422395,30.7004037 L39.8233665,31.6153179 L20.6679431,42.6962964 Z" id="Shape"></path>
                <path d="M8.01396221,21.0339991 L15.2515789,16.7668068 L15.3463653,16.5578254 L15.3463653,9.23580371 L14.9943016,9.02727369 L7.76255264,13.294466 L7.67318263,13.5034473 L7.67318263,20.825469 L8.01396221,21.0339991 Z M8.12454632,13.642016 L14.8950016,9.65918284 L14.8950016,16.4197081 L8.12454632,20.4025413 L8.12454632,13.642016 Z" id="Shape"></path>
            </g>
        </g>
    </g>
</svg>