<?xml version="1.0" encoding="UTF-8"?>
<svg width="733px" height="616px" viewBox="0 0 733 616" version="1.1" xmlns="http://www.w3.org/2000/svg" xmlns:xlink="http://www.w3.org/1999/xlink">
    <title>CC89B258-DA30-489D-A6BD-1FC80491F75C</title>
    <g id="Page-1" stroke="none" stroke-width="1" fill="none" fill-rule="evenodd">
        <g id="login-page" transform="translate(3.000000, -142.000000)">
            <g id="6" transform="translate(-3.000000, 142.000000)">
                <path d="M81.908,268.792 C81.3836,274.294 79.098,279.48 75.3908,283.5792 C71.6832,287.6784 66.752,290.4716 61.33032,291.544 C55.90844,292.6168 50.2852,291.9112 45.29644,289.532 C40.30764,287.1532 36.21964,283.228 33.64004,278.34 C33.08576,277.29 32.60332,276.2036 32.19604,275.088 C30.88596,271.4668 30.40704,267.5972 30.79476,263.766 C31.18248,259.9348 32.42688,256.2396 34.43588,252.9544 C36.44492,249.6692 39.16704,246.8776 42.40084,244.7868 C45.63464,242.6956 49.29732,241.3588 53.11768,240.8752 C56.93804,240.3912 60.81832,240.7728 64.47128,241.9916 C68.1244,243.2104 71.4564,245.2348 74.2208,247.9156 C76.9856,250.5964 79.112,253.8644 80.4424,257.478 C81.7732,261.092 82.274,264.9584 81.908,268.792 L81.908,268.792 Z" id="Path" fill="#EDF1F5" fill-rule="nonzero"></path>
                <path d="M51.908,388.792 C51.3836,394.294 49.098,399.48 45.3908,403.5792 C41.6832,407.6784 36.752,410.4716 31.33032,411.544 C25.90844,412.6168 20.2852,411.9112 15.29644,409.532 C10.30764,407.1532 6.21964,403.228 3.64004,398.34 C3.08576,397.29 2.60332,396.2036 2.19604,395.088 C0.88596,391.4668 0.40704,387.5972 0.79476,383.766 C1.18248,379.9348 2.42688,376.2396 4.43588,372.9544 C6.44492,369.6692 9.16704,366.8776 12.40084,364.7868 C15.63464,362.6956 19.29732,361.3588 23.11768,360.8752 C26.93804,360.3912 30.81832,360.7728 34.47128,361.9916 C38.1244,363.2104 41.4564,365.2348 44.2208,367.9156 C46.9856,370.5964 49.112,373.8644 50.4424,377.478 C51.7732,381.092 52.274,384.9584 51.908,388.792 L51.908,388.792 Z" id="Path" fill="#EDF1F5" fill-rule="nonzero"></path>
                <path d="M345.628,448.892 C345.2948,452.4168 344.234,455.8344 342.5128,458.9288 C340.7916,462.0228 338.4472,464.726 335.628,466.868 C334.704,467.572 333.7336,468.2136 332.724,468.788 C327.724,471.624 321.9168,472.7004 316.2328,471.8444 C310.5484,470.9884 305.316,468.25 301.3728,464.0672 C297.4296,459.8844 295.0044,454.4996 294.4848,448.7748 C293.9656,443.05 295.382,437.3164 298.508,432.4924 C301.634,427.6684 306.288,424.0328 311.7256,422.1676 C317.1628,420.3028 323.0688,420.316 328.4976,422.206 C333.9264,424.096 338.564,427.7528 341.6676,432.5912 C344.7712,437.4296 346.1616,443.1696 345.616,448.892 L345.628,448.892 Z" id="Path" fill="#EDF1F5" fill-rule="nonzero"></path>
                <path d="M441.768,365.076 C441.604,366.8384 441.076,368.5476 440.216,370.0956 C439.356,371.6432 438.184,372.996 436.776,374.068 C436.312,374.4176 435.828,374.7384 435.324,375.028 C433.828,375.8736 432.176,376.4108 430.472,376.6076 C428.764,376.8048 427.036,376.6576 425.384,376.1752 C423.736,375.6928 422.2,374.8844 420.8684,373.7984 C419.5368,372.7124 418.4364,371.3704 417.632,369.852 C417.3556,369.3264 417.1148,368.7824 416.912,368.224 C416.2568,366.4136 416.0176,364.4788 416.2112,362.5632 C416.4052,360.6472 417.0272,358.8 418.032,357.1572 C419.0364,355.5144 420.3976,354.1188 422.0144,353.0732 C423.6312,352.028 425.464,351.3596 427.372,351.1176 C429.284,350.8756 431.224,351.0664 433.048,351.6756 C434.876,352.2852 436.544,353.2976 437.924,354.6376 C439.308,355.978 440.368,357.6124 441.036,359.4192 C441.7,361.226 441.952,363.1592 441.768,365.076 L441.768,365.076 Z" id="Path" fill="#EDF1F5" fill-rule="nonzero"></path>
                <path d="M128.66,535.304 C128.4928,537.068 127.9628,538.776 127.1032,540.324 C126.2432,541.872 125.0724,543.224 123.664,544.296 C123.202,544.648 122.7168,544.968 122.212,545.256 C120.716,546.104 119.0648,546.648 117.3556,546.844 C115.6468,547.044 113.9156,546.9 112.2644,546.416 C110.6128,545.932 109.0756,545.124 107.7432,544.036 C106.4108,542.948 105.3104,541.6 104.508,540.08 C104.2292,539.556 103.9884,539.012 103.788,538.452 C103.1328,536.64 102.8936,534.708 103.0872,532.792 C103.2812,530.876 103.9032,529.028 104.908,527.384 C105.9124,525.744 107.2736,524.348 108.8904,523.3 C110.5072,522.256 112.3384,521.588 114.2488,521.344 C116.1588,521.104 118.0992,521.296 119.9256,521.904 C121.752,522.512 123.418,523.524 124.8004,524.864 C126.1828,526.208 127.246,527.84 127.9112,529.648 C128.5764,531.452 128.8268,533.388 128.644,535.304 L128.66,535.304 Z" id="Path" fill="#EDF1F5" fill-rule="nonzero"></path>
                <path d="M615.02,241.896 C614.856,243.658 614.324,245.3664 613.464,246.9132 C612.608,248.4604 611.436,249.8124 610.028,250.884 C609.564,251.2352 609.08,251.556 608.576,251.844 C607.08,252.6916 605.432,253.2304 603.724,253.4288 C602.016,253.6276 600.288,253.4812 598.636,252.9996 C596.988,252.5176 595.452,251.7096 594.12,250.6236 C592.788,249.5372 591.688,248.1952 590.884,246.676 C590.608,246.1516 590.368,245.6092 590.164,245.052 C589.508,243.2416 589.268,241.3068 589.464,239.3912 C589.656,237.4752 590.28,235.628 591.284,233.9852 C592.288,232.3424 593.648,230.9468 595.268,229.9012 C596.884,228.856 598.716,228.1876 600.624,227.9456 C602.536,227.7036 604.476,227.8944 606.3,228.5036 C608.128,229.1132 609.796,230.1256 611.176,231.4656 C612.56,232.806 613.62,234.4404 614.288,236.2472 C614.952,238.054 615.204,239.9872 615.02,241.904 L615.02,241.896 Z" id="Path" fill="#EDF1F5" fill-rule="nonzero"></path>
                <path d="M727.344,172.384 C727.18,174.146 726.648,175.8544 725.792,177.4012 C724.932,178.9484 723.76,180.3004 722.352,181.372 C721.892,181.724 721.404,182.0448 720.9,182.332 C719.404,183.1804 717.756,183.7196 716.048,183.918 C714.34,184.1164 712.612,183.97 710.96,183.4872 C709.312,183.0044 707.776,182.1952 706.444,181.1076 C705.112,180.02 704.012,178.6764 703.212,177.156 C702.932,176.6328 702.692,176.09 702.492,175.532 C701.836,173.7212 701.596,171.786 701.788,169.8692 C701.98,167.9528 702.604,166.104 703.608,164.4604 C704.612,162.8168 705.972,161.42 707.588,160.374 C709.208,159.3276 711.04,158.6588 712.948,158.4168 C714.86,158.1748 716.8,158.3656 718.628,158.9756 C720.456,159.5856 722.124,160.5988 723.504,161.94 C724.888,163.2812 725.948,164.9164 726.616,166.7244 C727.28,168.5324 727.528,170.4668 727.344,172.384 L727.344,172.384 Z" id="Path" fill="#EDF1F5" fill-rule="nonzero"></path>
                <path d="M657.344,52.384 C657.18,54.146 656.648,55.8544 655.792,57.4012 C654.932,58.9484 653.76,60.3004 652.352,61.372 C651.892,61.724 651.404,62.0448 650.9,62.332 C649.404,63.1804 647.756,63.7196 646.048,63.918 C644.34,64.1164 642.612,63.97 640.96,63.4872 C639.312,63.0044 637.776,62.1952 636.444,61.1076 C635.112,60.02 634.012,58.6764 633.212,57.156 C632.932,56.6328 632.692,56.09 632.492,55.532 C631.836,53.7212 631.596,51.786 631.788,49.8692 C631.98,47.9528 632.604,46.104 633.608,44.4604 C634.612,42.8168 635.972,41.42 637.588,40.374 C639.208,39.3276 641.04,38.6588 642.948,38.4168 C644.86,38.1748 646.8,38.3656 648.628,38.9756 C650.456,39.5856 652.124,40.5988 653.504,41.94 C654.888,43.2812 655.948,44.9164 656.616,46.7244 C657.28,48.5324 657.528,50.4668 657.344,52.384 L657.344,52.384 Z" id="Path" fill="#EDF1F5" fill-rule="nonzero"></path>
                <path d="M50.61996,185.744 C50.45388,187.506 49.92416,189.2148 49.06424,190.7616 C48.20432,192.3088 47.03288,193.6608 45.62396,194.732 C43.05524,196.696 39.83844,197.6148 36.61996,197.304 C34.09296,197.0624 31.69432,196.0768 29.7274,194.472 C27.76044,192.8672 26.313492,190.7152 25.569504,188.2884 C24.8255148,185.8612 24.8178912,183.268 25.547596,180.8364 C26.2773,178.4052 27.711564,176.2448 29.66904,174.6284 C31.62652,173.012 34.01932,172.0124 36.54484,171.756 C39.0704,171.4996 41.61528,171.9976 43.85776,173.1872 C46.10024,174.3772 47.9396,176.2052 49.14324,178.44 C50.34688,180.6752 50.8608,183.2168 50.61996,185.744 Z" id="Path" fill="#EDF1F5" fill-rule="nonzero"></path>
                <path d="M624.58,548.144 C624.38,550.244 623.664,552.264 622.496,554.024 C621.328,555.784 619.744,557.228 617.884,558.228 C616.024,559.228 613.948,559.756 611.836,559.764092 C609.724,559.772 607.644,559.256 605.78,558.268 C603.512,557.056 601.656,555.192 600.452,552.92 C600.176,552.396 599.932,551.852 599.728,551.292 C599.072,549.48 598.832,547.548 599.028,545.632 C599.22,543.716 599.844,541.868 600.848,540.224 C601.852,538.584 603.212,537.188 604.832,536.14 C606.448,535.096 608.28,534.428 610.188,534.184 C612.1,533.944 614.04,534.136 615.864,534.744 C617.692,535.352 619.36,536.364 620.74,537.704 C622.124,539.048 623.184,540.68 623.852,542.488 C624.516,544.292 624.768,546.228 624.584,548.144 L624.58,548.144 Z" id="Path" fill="#EDF1F5" fill-rule="nonzero"></path>
                <path d="M365.872,504.24 C365.7064,506.002 365.1772,507.71 364.318,509.2572 C363.4588,510.804 362.2884,512.156 360.88,513.228 C360.418,513.58 359.9328,513.9 359.428,514.188 C357.9332,515.036 356.2828,515.576 354.5756,515.772 C352.868,515.972 351.1384,515.824 349.4888,515.344 C347.8388,514.86 346.3032,514.052 344.972,512.964 C343.6408,511.876 342.542,510.532 341.74,509.012 C341.462,508.4884 341.2212,507.9456 341.02,507.388 C340.3636,505.5772 340.1228,503.6416 340.3156,501.7252 C340.5084,499.8088 341.13,497.96 342.1344,496.3164 C343.1384,494.6728 344.5,493.276 346.1172,492.23 C347.7344,491.1836 349.5664,490.5148 351.4776,490.2728 C353.3884,490.0308 355.3292,490.2216 357.1564,490.8316 C358.9836,491.4416 360.65,492.4548 362.0324,493.796 C363.4148,495.1372 364.4776,496.7724 365.1424,498.5804 C365.8072,500.3884 366.0564,502.3228 365.872,504.24 L365.872,504.24 Z" id="Path" fill="#EDF1F5" fill-rule="nonzero"></path>
                <path d="M325.872,604.24 C325.7064,606.002 325.1772,607.71 324.318,609.2572 C323.4588,610.804 322.2884,612.156 320.88,613.228 C320.418,613.58 319.9328,613.9 319.428,614.188 C317.9332,615.036 316.2828,615.576 314.5756,615.772 C312.868,615.972 311.1384,615.824 309.4888,615.344 C307.8388,614.86 306.3032,614.052 304.972,612.964 C303.6408,611.876 302.542,610.532 301.74,609.012 C301.462,608.4884 301.2212,607.9456 301.02,607.388 C300.3636,605.5772 300.1228,603.6416 300.3156,601.7252 C300.5084,599.8088 301.13,597.96 302.1344,596.3164 C303.1384,594.6728 304.5,593.276 306.1172,592.23 C307.7344,591.1836 309.5664,590.5148 311.4776,590.2728 C313.3884,590.0308 315.3292,590.2216 317.1564,590.8316 C318.9836,591.4416 320.65,592.4548 322.0324,593.796 C323.4148,595.1372 324.4776,596.7724 325.1424,598.5804 C325.8072,600.3884 326.0564,602.3228 325.872,604.24 L325.872,604.24 Z" id="Path" fill="#EDF1F5" fill-rule="nonzero"></path>
                <path d="M732.716,509.768 C732.384,513.292 731.324,516.712 729.6,519.804 C727.88,522.9 725.536,525.604 722.716,527.744 C721.792,528.448 720.82,529.092 719.812,529.668 C715,532.404 709.432,533.508 703.94,532.816 C698.444,532.124 693.324,529.676 689.34,525.832 C686.504,523.104 684.332,519.764 682.992,516.064 C681.68,512.444 681.204,508.5732 681.592,504.742 C681.98,500.9108 683.224,497.2156 685.232,493.9304 C687.24,490.6452 689.964,487.8536 693.196,485.7628 C696.432,483.6716 700.092,482.3348 703.912,481.8512 C707.732,481.3672 711.616,481.7488 715.268,482.9676 C718.92,484.186 722.252,486.2108 725.016,488.8916 C727.78,491.5724 729.908,494.8404 731.24,498.454 C732.568,502.068 733.068,505.9344 732.704,509.768 L732.716,509.768 Z" id="Path" fill="#EDF1F5" fill-rule="nonzero"></path>
                <path d="M463.992,138.116 C463.66,141.64096 462.6,145.05848 460.876,148.1526 C459.156,151.2468 456.812,153.95 453.992,156.092 C453.068,156.7984 452.1,157.44 451.088,158.012 C446.276,160.7464 440.708,161.8508 435.216,161.16 C429.724,160.4696 424.602,158.0208 420.616,154.18 C418.646,152.2808 416.9896,150.0816 415.708,147.664 C413.8492,144.13248 412.838,140.21664 412.7548,136.22668 C412.6716,132.23668 413.5184,128.28208 415.228,124.676 C417.8176,119.22076 422.2468,114.85252 427.736,112.338824 C433.228,109.825123 439.428,109.326752 445.252,110.931264 C451.072,112.535776 456.14,116.14052 459.568,121.1122 C462.996,126.08384 464.564,132.1044 463.992,138.116 L463.992,138.116 Z" id="Path" fill="#EDF1F5" fill-rule="nonzero"></path>
                <path d="M332.954457,47.0660996 C332.765804,49.0691021 332.163475,51.0110536 331.18384,52.7692382 C330.206477,54.5274683 328.874536,56.0635187 327.272116,57.2806762 C326.747068,57.6820768 326.197017,58.0466558 325.621964,58.3716858 C322.887621,59.9254652 319.723694,60.5530229 316.602952,60.1604868 C313.48221,59.768178 310.571715,58.3766862 308.306734,56.1942126 C307.187313,55.1150223 306.24609,53.8653618 305.517841,52.491599 C304.461607,50.4848688 303.887009,48.2597549 303.839732,45.9925235 C303.792455,43.7252693 304.273635,41.4781306 305.245088,39.4290329 C306.716587,36.3291794 309.23341,33.8469963 312.352561,32.4186285 C315.473303,30.9902579 318.996354,30.7070664 322.30575,31.6188049 C325.612872,32.5305433 328.492683,34.5788819 330.440589,37.4039601 C332.388496,40.2290156 333.279487,43.6501033 332.954457,47.0660996 L332.954457,47.0660996 Z" id="Path" fill="#EDF1F5" fill-rule="nonzero"></path>
                <path d="M463.992,28.116 C463.66,31.64096 462.6,35.05848 460.876,38.1526 C459.156,41.2468 456.812,43.95 453.992,46.092 C453.068,46.7984 452.1,47.44 451.088,48.012 C446.276,50.7464 440.708,51.8508 435.216,51.16 C429.724,50.4696 424.602,48.0208 420.616,44.18 C418.646,42.2808 416.9896,40.0816 415.708,37.664 C413.8492,34.13248 412.838,30.21664 412.7548,26.22668 C412.6716,22.23668 413.5184,18.28208 415.228,14.676 C417.8176,9.22076 422.2468,4.85252 427.736,2.338824 C433.228,-0.1748768 439.428,-0.673248 445.252,0.931264 C451.072,2.535776 456.14,6.14052 459.568,11.1122 C462.996,16.08384 464.564,22.1044 463.992,28.116 L463.992,28.116 Z" id="Path" fill="#EDF1F5" fill-rule="nonzero"></path>
                <line x1="60.908" y1="515.46" x2="139.676" y2="454.276" id="Path" stroke="#F9D0B5" stroke-width="5.6"></line>
                <line x1="360.724" y1="243.568" x2="547.396" y2="355.756" id="Path" stroke="#F9D0B5" stroke-width="5.6"></line>
                <line x1="466.076" y1="511.616" x2="592.864" y2="436.152" id="Path" stroke="#F9D0B5" stroke-width="5.6"></line>
                <line x1="254.876" y1="289.352" x2="219.432" y2="343.016" id="Path" stroke="#F9D0B5" stroke-width="5.6"></line>
                <line x1="692.524" y1="243.568" x2="657.084" y2="331.26" id="Path" stroke="#F9D0B5" stroke-width="5.6"></line>
                <line x1="554.692" y1="153.168" x2="690.572" y2="235.136" id="Path" stroke="#F9D0B5" stroke-width="5.6"></line>
                <line x1="124.416" y1="148.97204" x2="254.384" y2="193.356" id="Path" stroke="#F9D0B5" stroke-width="5.6"></line>
                <path d="M274.168,409.912 C271.9196,433.7496 260.7192,455.8488 242.824,471.756 C241.0264,473.356 239.172,474.884 237.26,476.34 C233.8472,478.9436 230.2632,481.3144 226.532,483.436 C209.8016,492.9572 190.5604,497.1356 171.388,495.412 L170.712,495.352 C156.0812,493.9572 141.9744,489.182 129.5044,481.4032 C117.0344,473.6248 106.5424,463.0548 98.856,450.528 C97.7892,448.784 96.772,447.004 95.804,445.188 C88.9308,432.1424 85.1868,417.6768 84.868,402.9344 C84.5496,388.1924 87.6648,373.5784 93.968,360.248 C110.592,325.184 147.868,302.552 188.732,306.452 C240.908,311.428 279.148,357.752 274.168,409.912 Z" id="Path" fill="#F9D0B5" fill-rule="nonzero"></path>
                <path d="M81.908,520.852 C81.578,524.38 80.5188,527.804 78.7976,530.9 C77.076,534 74.73,536.708 71.908,538.852 C70.984,539.556 70.0136,540.196 69.004,540.772 C66.0136,542.468 62.71352,543.544 59.299,543.94 C55.88452,544.336 52.42524,544.044 49.12616,543.08 C45.82712,542.112 42.75544,540.496 40.09324,538.32 C37.43104,536.148 35.23252,533.46 33.62792,530.42 C33.07288,529.372 32.59044,528.284 32.18392,527.168 C30.87384,523.548 30.39492,519.676 30.78264,515.848 C31.17036,512.016 32.41476,508.3196 34.4238,505.0344 C36.4328,501.7492 39.15496,498.9576 42.38876,496.8668 C45.62256,494.7756 49.2852,493.4388 53.10556,492.9552 C56.92592,492.4712 60.80624,492.8528 64.4592,494.0716 C68.112,495.29 71.4444,497.3148 74.2088,499.9956 C76.9736,502.6764 79.0996,505.9444 80.4304,509.558 C81.7612,513.172 82.262,517.04 81.896,520.872 L81.908,520.852 Z" id="Path" fill="#F9D0B5" fill-rule="nonzero"></path>
                <path d="M706.72,406.86 C705.392,420.6352 701.064,433.9528 694.04,445.8788 C687.02,457.8044 677.476,468.05 666.076,475.8964 C654.676,483.7428 641.696,489.0004 628.048,491.3004 C614.404,493.6 600.42,492.8868 587.076,489.21 C573.736,485.5328 561.36,478.9816 550.816,470.0156 C540.276,461.05 531.82,449.886 526.048,437.3076 C520.28,424.7288 517.328,411.04 517.406416,397.2012 C517.488,383.362 520.592,369.7076 526.508,357.196 C543.132,322.132 580.408,299.5 621.272,303.4 C673.448,308.376 711.708,354.7 706.72,406.86 Z" id="Path" fill="#F9D0B5" fill-rule="nonzero"></path>
                <path d="M391.612,222.612 C390.2864,236.3904 385.9624,249.712 378.9424,261.6424 C371.9228,273.5724 362.3772,283.822 350.9764,291.6716 C339.5752,299.5216 326.5948,304.7816 312.9452,307.0832 C299.2956,309.3844 285.308,308.6712 271.9636,304.9932 C258.6188,301.3152 246.2408,294.762 235.6972,285.7932 C225.154,276.824 216.7008,265.6568 210.9312,253.0744 C205.1612,240.4924 202.2144,226.8 202.295886,212.958 C202.3808,199.116 205.4916,185.46 211.412,172.948 C228.036,137.876 265.308,115.252 306.176,119.152 C358.34,124.128 396.592,170.452 391.612,222.612 Z" id="Path" fill="#F9D0B5" fill-rule="nonzero"></path>
                <path d="M154.276,152.08 C153.7508,157.5816 151.4648,162.7672 147.7572,166.8656 C144.0496,170.9644 139.1184,173.7572 133.6964,174.8292 C128.2748,175.9012 122.652,175.1952 117.6636,172.816 C112.6752,170.4372 108.5872,166.512 106.008,161.624 C105.452,160.5752 104.9708,159.4884 104.568,158.372 C103.2596,154.7516 102.782,150.8832 103.1708,147.05316 C103.5596,143.2232 104.8044,139.52964 106.8136,136.2458 C108.8228,132.962 111.5444,130.172 114.7776,128.0822 C118.0104,125.99244 121.672,124.6564 125.4912,124.173 C129.3104,123.68956 133.1896,124.07112 136.8412,125.2894 C140.4932,126.50768 143.824,128.53156 146.588,131.2112 C149.352,133.89084 151.478,137.15772 152.8088,140.77004 C154.1396,144.38236 154.6408,148.24768 154.276,152.08 L154.276,152.08 Z" id="Path" fill="#F9D0B5" fill-rule="nonzero"></path>
                <path d="M482.82,517.9 C482.364,522.708 480.56,527.292 477.62,531.12 C474.676,534.952 470.712,537.872 466.184,539.548 C461.652,541.228 456.744,541.592 452.016,540.604 C447.288,539.616 442.932,537.316 439.456,533.964 C436.624,531.236 434.452,527.896 433.112,524.196 C431.804,520.576 431.324,516.708 431.716,512.876 C432.104,509.0476 433.348,505.354 435.356,502.0704 C437.364,498.7864 440.088,495.9964 443.32,493.9064 C446.552,491.8164 450.212,490.48 454.032,489.9964 C457.852,489.5128 461.732,489.894 465.384,491.112 C469.036,492.3296 472.364,494.3532 475.128,497.0324 C477.892,499.712 480.02,502.9784 481.352,506.5904 C482.684,510.204 483.184,514.068 482.82,517.9 L482.82,517.9 Z" id="Path" fill="#F9D0B5" fill-rule="nonzero"></path>
                <path d="M720.084,238.408 C719.56,243.91 717.272,249.096 713.568,253.1952 C709.86,257.294 704.928,260.0876 699.508,261.16 C694.084,262.2328 688.46,261.5268 683.472,259.148 C678.484,256.7692 674.396,252.844 671.816,247.956 C671.26,246.9064 670.78,245.8196 670.372,244.704 C669.06,241.0828 668.584,237.2132 668.972,233.382 C669.36,229.5508 670.604,225.8556 672.612,222.5704 C674.62,219.2852 677.344,216.4936 680.576,214.4028 C683.812,212.3116 687.472,210.9748 691.292,210.4912 C695.116,210.0072 698.996,210.3888 702.648,211.6076 C706.3,212.826 709.632,214.8508 712.396,217.5316 C715.16,220.2124 717.288,223.4804 718.62,227.094 C719.948,230.708 720.448,234.5744 720.084,238.408 L720.084,238.408 Z" id="Path" fill="#F9D0B5" fill-rule="nonzero"></path>
                <path d="M572.956,150.212 C572.624,153.7368 571.564,157.1544 569.84,160.2484 C568.12,163.3428 565.776,166.046 562.956,168.188 C562.032,168.8944 561.064,169.536 560.052,170.108 C555.24,172.8424 549.672,173.9468 544.18,173.256 C538.688,172.5656 533.564,170.1168 529.58,166.276 C526.748,163.5476 524.576,160.206 523.236,156.508 C521.928,152.8876 521.452,149.0194 521.84,145.18948 C522.228,141.3596 523.472,137.66608 525.48,134.38224 C527.488,131.09836 530.212,128.30824 533.444,126.21832 C536.676,124.1284 540.34,122.79212 544.156,122.3084 C547.976,121.82468 551.856,122.20588 555.508,123.42384 C559.16,124.64176 562.488,126.66524 565.256,129.34456 C568.02,132.02384 570.144,135.2904 571.476,138.90248 C572.808,142.51456 573.308,146.37972 572.944,150.212 L572.956,150.212 Z" id="Path" fill="#F9D0B5" fill-rule="nonzero"></path>
                <path d="M520.108,349.372 L522.552,344.928 C523.58,342.7096 524.492,340.44 525.288,338.128 C526.52,334.5 526.088,329.328 531.484,324.444 C536.88,319.56 528.9,320.908 526.204,323.16 C523.956,325.036 522.128,330.36 519.892,331.56 C519.38,330.8372 518.976,330.0452 518.692,329.208 L513.804,306.304 C513.732,305.9372 513.532,305.608 513.24,305.3772 C512.944,305.1468 512.576,305.0296 512.204,305.048 L511.308,305.076 C511.092,305.0876 510.88,305.1444 510.684,305.2428 C510.492,305.3412 510.32,305.4788 510.184,305.6472 C510.044,305.8156 509.944,306.0108 509.888,306.2204 C509.828,306.43 509.816,306.6492 509.848,306.864 C510.6,311.764 513.212,326.344 512.948,326.352 L512.408,326.608 L504.912,303.408 C504.808,303.0416 504.572,302.7268 504.252,302.5228 C503.928,302.3192 503.544,302.2412 503.168,302.304 L501.968,302.504 C501.76,302.5368 501.56,302.6116 501.384,302.7244 C501.204,302.8368 501.052,302.9844 500.932,303.1584 C500.816,303.332 500.732,303.5284 500.692,303.7352 C500.652,303.9416 500.656,304.1544 500.7,304.36 C501.852,309.696 507.24,327.452 506.968,327.468 L506.308,327.692 L498.176,308.492 C498.064,308.1096 497.808,307.7852 497.46,307.5856 C497.116,307.386 496.708,307.3268 496.32,307.42 L495.364,307.656 C495.164,307.7048 494.976,307.7924 494.812,307.9136 C494.648,308.0348 494.508,308.1876 494.4,308.3628 C494.296,308.5384 494.224,308.7328 494.192,308.9356 C494.16,309.138 494.172,309.3448 494.22,309.544 L501.536,328.432 L500.864,328.856 L493.2,315.212 C493.052,314.8608 492.78,314.576 492.436,314.4108 C492.096,314.2456 491.704,314.212 491.336,314.316 L490.88,314.452 C490.488,314.5668 490.16,314.8288 489.96,315.1828 C489.76,315.5368 489.704,315.9548 489.808,316.348 C490.544,319.148 494.208,325.024 496.34,331.148 C498.008,335.892 498.124,339.692 500.876,345.436 C502.036,347.872 504.244,350.764 505.448,352.376" id="Path" fill="#3361C2" fill-rule="nonzero"></path>
                <path d="M659.084,480.384 C641.296,490.4704 620.724,494.54 600.432,491.9868 C580.144,489.434 561.22,480.3948 546.484,466.216 L547.628,436.884 L510.908,430.82 C505.488,429.3312 500.776,425.9596 497.62,421.31 C494.464,416.6604 493.068,411.038 493.684,405.452 L496.688,347.876 L525.7,349.876 L526.5,357.204 L530.984,395.876 C530.984,395.876 561.336,399.672 602.756,410.276 C643.076,420.6 654.952,456.404 659.084,480.384 Z" id="Path" fill="#EF6E45" fill-rule="nonzero"></path>
                <line x1="547.228" y1="436.512" x2="547.568" y2="426.516" id="Path" stroke="#FFFFFF" stroke-width="1.2" stroke-linecap="square"></line>
                <path d="M627.492,374.3736 C638.612,360.1968 637.028,340.3904 623.952,330.1348 C610.88,319.8792 591.264,323.058 580.144,337.2348 C569.024,351.4116 570.608,371.218 583.684,381.4736 C596.76,391.7292 616.372,388.5504 627.492,374.3736 Z" id="Path" fill="#24272D" fill-rule="nonzero"></path>
                <path d="M583.656,421.74 C581.472,420.1592 579.864,417.91 579.076,415.3336 C578.284,412.7568 578.356,409.9928 579.276,407.46 L593.716,367.812 C594.208,366.2036 595.024,364.7124 596.112,363.4288 C597.196,362.1456 598.536,361.0968 600.04,360.3464 C601.548,359.596 603.188,359.16 604.868,359.0644 C606.548,358.9688 608.228,359.216 609.808,359.7908 C611.392,360.3656 612.836,361.2564 614.064,362.408 C615.288,363.56 616.268,364.9492 616.94,366.4916 C617.612,368.0336 617.964,369.6964 617.972141,371.3784 C617.98,373.0604 617.648,374.7268 616.992,376.276 L602.548,415.928 C601.888,417.7256 600.824,419.3464 599.436,420.6636 C598.048,421.9808 596.372,422.9584 594.544,423.5204 C592.712,424.082 590.776,424.2124 588.888,423.9016 C587,423.5908 585.208,422.8468 583.656,421.728 L583.656,421.74 Z" id="Path" fill="#3361C2" fill-rule="nonzero"></path>
                <path d="M586.108,399.632 L583.708,398.74 C580.916,397.704 578.388,396.0656 576.304,393.9412 C574.216,391.8168 572.628,389.2592 571.64,386.4496 C570.656,383.6404 570.304,380.6484 570.608,377.6872 C570.912,374.7256 571.864,371.8676 573.396,369.316 L580.996,356.676 C583.448,352.594 587.26,349.5064 591.764,347.9556 C596.264,346.4048 601.168,346.49 605.616,348.196 L605.616,348.196 C610.632,350.1212 614.676,353.96 616.864,358.868 C619.048,363.7764 619.196,369.3516 617.272,374.368 L612.072,387.9 C610.16,392.8804 606.364,396.906 601.5,399.1024 C596.64,401.2988 591.108,401.4892 586.108,399.632 Z" id="Path" fill="#3361C2" fill-rule="nonzero"></path>
                <polyline id="Path" stroke="#FFFFFF" stroke-width="1.2" stroke-linecap="square" points="588.024 363.848 577.62 372.296 581.704 375.364"></polyline>
                <path d="M590.668,369.816 C591.88,369.816 592.864,368.8328 592.864,367.62 C592.864,366.4072 591.88,365.424 590.668,365.424 C589.456,365.424 588.472,366.4072 588.472,367.62 C588.472,368.8328 589.456,369.816 590.668,369.816 Z" id="Path" fill="#FFFFFF" fill-rule="nonzero"></path>
                <path d="M581.536,365.196 C582.748,365.196 583.732,364.2128 583.732,363 C583.732,361.7872 582.748,360.804 581.536,360.804 C580.324,360.804 579.34,361.7872 579.34,363 C579.34,364.2128 580.324,365.196 581.536,365.196 Z" id="Path" fill="#FFFFFF" fill-rule="nonzero"></path>
                <path d="M648.108,433.3 C648.108,433.3 637.98,458.656 618.252,447.392 C585.592,428.74 592.3,404.212 601.508,392.992 C605.176,388.524 610.308,386.544 615.664,384.92 C600.092,371.188 607.748,360.252 607.748,360.252 C607.748,360.252 566.1,357.576 579.568,337.82 C593.036,318.064 617.092,320.652 629.844,329.232 C659.484,349.184 649.396,369.52 656.16,377.008 C694.508,419.5 648.108,433.3 648.108,433.3 Z" id="Path" fill="#24272D" fill-rule="nonzero"></path>
                <path d="M620.04,386.6596 C624.348,384.0416 625.716,378.4288 623.096,374.1232 C620.48,369.8176 614.868,368.4496 610.56,371.0672 L603.472,375.3772 C599.168,377.9952 597.8,383.6076 600.416,387.9136 C603.036,392.2192 608.648,393.5872 612.952,390.9696 L620.04,386.6596 Z" id="Path" fill="#3361C2" fill-rule="nonzero"></path>
                <line x1="618.104" y1="377.552" x2="608.048" y2="383.66" id="Path" stroke="#FFFFFF" stroke-width="1.2" stroke-linecap="square"></line>
                <path d="M587.764,381.552 C587.868,382.9496 587.416,384.3324 586.504,385.3956 C585.588,386.4588 584.292,387.116 582.892,387.222 C581.496,387.328 580.112,386.8748 579.052,385.9612 C577.988,385.048 577.328,383.7496 577.224,382.352 C577,379.44 579.948,379.468 582.856,379.244 C585.764,379.02 587.54,378.64 587.764,381.552 Z" id="Path" fill="#FFFFFF" fill-rule="nonzero"></path>
                <path d="M358,286.404 L354.704,289.04 C351.2912,291.6436 347.7072,294.0144 343.976,296.136 C332.9252,302.3992 320.7296,306.3804 308.1116,307.844 C295.494,309.3072 282.7108,308.2228 270.52,304.6548 C258.3288,301.0868 246.9784,295.1084 237.1404,287.0728 C227.3028,279.0376 219.178,269.1092 213.248,257.876 C228.312,246.804 253.532,233.576 285.792,236.276 C339.752,240.816 358,286.404 358,286.404 Z" id="Path" fill="#3361C2" fill-rule="nonzero"></path>
                <path d="M293.708,258.768051 C293.1008,258.7696 292.4944,258.7336 291.892,258.66 C287.8892,258.1832 284.24,256.1364 281.7468,252.9692 C279.2532,249.8024 278.12,245.7748 278.596,241.772 L285.796,181.208 C286.2732,177.2048 288.3212,173.5552 291.4896,171.062 C293.0584,169.8276 294.8548,168.9144 296.7764,168.374 C298.6984,167.834 300.7076,167.6776 302.69,167.914 C304.672,168.1504 306.5884,168.7748 308.3292,169.752 C310.07,170.7288 311.6012,172.0392 312.8356,173.6076 C314.07,175.1764 314.9836,176.9732 315.5236,178.8948 C316.064,180.8164 316.2204,182.826 315.984,184.808 L308.784,245.372 C308.3428,249.062 306.5656,252.462 303.7876,254.9304 C301.0096,257.3988 297.424,258.764 293.708,258.768051 L293.708,258.768051 Z" id="Path" fill="#EF6E45" fill-rule="nonzero"></path>
                <path d="M306.432,227.828 L309.656,228.188 C313.4048,228.6108 317.2012,228.202 320.7744,226.9908 C324.3472,225.7796 327.6096,223.796 330.3288,221.1804 C333.048,218.5652 335.1576,215.3828 336.5068,211.8592 C337.856,208.336 338.4124,204.5588 338.136,200.796 L336.768,182.156 C336.3256,176.136 333.7768,170.464 329.5684,166.1364 C325.36,161.8088 319.7612,159.102 313.756,158.492 L313.756,158.492 C306.9812,157.8048 300.2112,159.8368 294.9344,164.1412 C289.658,168.4456 286.3076,174.6696 285.62,181.444 L283.764,199.72 C283.0808,206.446 285.078,213.1696 289.322,218.432 C293.566,223.6944 299.714,227.0704 306.432,227.828 Z" id="Path" fill="#EF6E45" fill-rule="nonzero"></path>
                <path d="M291.4976,208.0156 L291.5008,208.0132 C295.9416,205.2816 297.3268,199.4672 294.5948,195.0264 L291.7884,190.4648 C289.0564,186.0244 283.242,184.6392 278.8016,187.3708 L278.798,187.3728 C274.3576,190.1048 272.9724,195.9192 275.7044,200.3596 L278.5108,204.9216 C281.2428,209.362 287.0568,210.7472 291.4976,208.0156 Z" id="Path" fill="#EF6E45" fill-rule="nonzero"></path>
                <line x1="279.864" y1="194.748" x2="287.432" y2="202.748" id="Path" stroke="#FFFFFF" stroke-width="1.2" stroke-linecap="square"></line>
                <polyline id="Path" stroke="#FFFFFF" stroke-width="1.2" stroke-linecap="square" points="324.864 184.524 325.396 199.504 320.068 199.72"></polyline>
                <path d="M308.992,204.372 C308.5516,205.186 308.276,206.0792 308.1804,207 C308.0852,207.9208 308.172,208.8512 308.4364,209.7384 C308.7004,210.6256 309.1372,211.452 309.7208,212.1704 C310.3044,212.8892 311.024,213.4856 311.838,213.926 C312.6524,214.3664 313.5452,214.6424 314.466,214.7376 C315.3868,214.8328 316.3172,214.746 317.2044,214.4816 C318.0916,214.2176 318.918,213.7808 319.6364,213.1972 C320.3552,212.6136 320.9516,211.8944 321.392,211.08 C323.244,207.652 319.64,206.088 316.192,204.236 C312.744,202.384 310.844,200.948 308.992,204.372 Z" id="Path" fill="#FFFFFF" fill-rule="nonzero"></path>
                <path d="M293.48,201.664 L300.68,174.62 L302.388,168.22 C303.9928,169.94 305.8716,171.3824 307.948,172.488 C315.484,176.544 338.204,174.928 341.352,158.996 C343.92,146.004 330.124,153.472 323.06,152.66 C311.96,151.38 304.26,144.848 289.06,153.06 C270.88,162.896 279.492,187.008 279.492,187.008 C279.492,187.008 287.492,183.876 293.48,201.664 Z" id="Path" fill="#24272D" fill-rule="nonzero"></path>
                <polygon id="Path" fill="#24272D" fill-rule="nonzero" points="310.46 228.268 300.832 227.392 309.624 235.972"></polygon>
                <path d="M314.604,192.616 C316.064,192.616 317.248,191.4324 317.248,189.972 C317.248,188.5116 316.064,187.328 314.604,187.328 C313.1436,187.328 311.96,188.5116 311.96,189.972 C311.96,191.4324 313.1436,192.616 314.604,192.616 Z" id="Path" fill="#FFFFFF" fill-rule="nonzero"></path>
                <path d="M330.376,192.616 C331.8364,192.616 333.02,191.4324 333.02,189.972 C333.02,188.5116 331.8364,187.328 330.376,187.328 C328.9156,187.328 327.732,188.5116 327.732,189.972 C327.732,191.4324 328.9156,192.616 330.376,192.616 Z" id="Path" fill="#FFFFFF" fill-rule="nonzero"></path>
                <path d="M257.804,454.828 C253.4996,461.0448 248.4712,466.7276 242.824,471.756 C241.0264,473.356 239.172,474.884 237.26,476.34 C233.8472,478.9436 230.2632,481.3144 226.532,483.436 C220.9688,486.6012 215.0988,489.1932 209.012,491.172 L171.388,495.412 L170.712,495.352 C156.0812,493.9572 141.9744,489.182 129.5044,481.4032 C117.0344,473.6244 106.5424,463.0548 98.856,450.528 C113.076,424.452 138.48,397.6 183.584,391.116 C226.584,384.936 250.216,435.036 257.804,454.828 Z" id="Path" fill="#24272D" fill-rule="nonzero"></path>
                <path d="M189.336,413.548 L188.856,413.58 C184.2768,413.7896 179.802,412.172 176.4156,409.0832 C173.0288,405.9944 171.0076,401.6868 170.796,397.108 L167.996,336.372 C167.8908,334.1048 168.2332,331.8388 169.004,329.7036 C169.7748,327.5688 170.9584,325.6064 172.4872,323.9288 C175.5752,320.5408 179.8828,318.5184 184.462,318.306 C189.0412,318.094 193.5172,319.7096 196.9052,322.7976 C200.2932,325.8856 202.3156,330.1928 202.528,334.772 L205.328,395.504 C205.538,400.0024 203.9844,404.4048 200.9976,407.7748 C198.0108,411.1452 193.8268,413.2164 189.336,413.548 L189.336,413.548 Z" id="Path" fill="#3361C2" fill-rule="nonzero"></path>
                <path d="M199.564,381.788 L202.696,380.988 C206.3348,380.0408 209.7204,378.3036 212.612,375.9 C215.5036,373.496 217.8304,370.4848 219.4264,367.0804 C221.0228,363.6756 221.8492,359.9612 221.847204,356.2008 C221.8456,352.4408 221.0152,348.7272 219.416,345.324 L211.484,328.464 C208.9208,323.0216 204.5232,318.6552 199.062,316.132 C193.6012,313.6084 187.426,313.0888 181.62,314.664 L181.62,314.664 C175.0692,316.4428 169.4932,320.75 166.1176,326.6392 C162.7424,332.528 161.8436,339.5168 163.62,346.068 L168.42,363.74 C170.1908,370.2416 174.454,375.7832 180.2844,379.162 C186.1148,382.5408 193.0424,383.4844 199.564,381.788 L199.564,381.788 Z" id="Path" fill="#3361C2" fill-rule="nonzero"></path>
                <path d="M165.4024,370.4168 C169.5316,373.5748 175.4388,372.7876 178.5964,368.6588 C181.7544,364.53 180.9672,358.6228 176.8384,355.4648 L172.6,352.2232 C168.4712,349.0652 162.564,349.8524 159.406,353.9812 C156.248,358.11 157.0352,364.0172 161.164,367.1752 L165.4024,370.4168 Z" id="Path" fill="#3361C2" fill-rule="nonzero"></path>
                <path d="M224.192,362.868 C226.632,373.008 224.992,387.88 212.712,390.988 C200.432,394.096 185.188,384.276 182.628,374.156 C180.068,364.036 182.872,358.384 195.16,355.272 C207.448,352.16 221.004,349.64 224.192,362.868 Z" id="Path" fill="#24272D" fill-rule="nonzero"></path>
                <line x1="163.024" y1="360.488" x2="171.092" y2="365.248" id="Path" stroke="#FFFFFF" stroke-width="1.2" stroke-linecap="square"></line>
                <path d="M193.708,364.432 C193.5064,366.2612 194.0304,368.096 195.1672,369.5432 C196.3036,370.99 197.9628,371.9336 199.7876,372.1708 C201.6124,372.408 203.4572,371.9204 204.9264,370.812 C206.3952,369.704 207.3708,368.0636 207.644,366.244 C208.144,362.396 204.228,362.244 200.38,361.724 C196.532,361.204 194.208,360.584 193.708,364.432 Z" id="Path" fill="#FFFFFF" fill-rule="nonzero"></path>
                <polygon id="Path" fill="#24272D" fill-rule="nonzero" points="204.44 380.352 194.828 381.064 204.876 388.064"></polygon>
                <path d="M192.524,349.208 C193.9776,349.208 195.156,348.0296 195.156,346.576 C195.156,345.1224 193.9776,343.944 192.524,343.944 C191.0704,343.944 189.892,345.1224 189.892,346.576 C189.892,348.0296 191.0704,349.208 192.524,349.208 Z" id="Path" fill="#FFFFFF" fill-rule="nonzero"></path>
                <path d="M210.936,344.008 C212.3896,344.008 213.568,342.8296 213.568,341.376 C213.568,339.9224 212.3896,338.744 210.936,338.744 C209.4824,338.744 208.304,339.9224 208.304,341.376 C208.304,342.8296 209.4824,344.008 210.936,344.008 Z" id="Path" fill="#FFFFFF" fill-rule="nonzero"></path>
                <path d="M163.824,493.364 L174.352,500.424 C174.352,500.424 173.884,525.536 184.928,524.196 C184.928,524.196 184.972,528.164 187.216,528.544 C189.46,528.924 195.576,519.556 195.576,519.556 C195.576,519.556 203.976,516.388 205.636,508.276 C207.296,500.164 207.6,481.004 205.008,479.56 C202.416,478.116 176.844,477.484 176.844,477.484 C176.844,477.484 166.228,478.772 163.824,493.364 Z" id="Path" fill="#3361C2" fill-rule="nonzero"></path>
                <line x1="181.584" y1="474.276" x2="139.132" y2="458.604" id="Path" stroke="#FFFFFF" stroke-width="1.2" stroke-linecap="square"></line>
                <line x1="147.56" y1="460.948" x2="171.38" y2="431.956" id="Path" stroke="#FFFFFF" stroke-width="1.2" stroke-linecap="square"></line>
                <path d="M163.76,494.452 C163.76,494.452 162.652,479.208 182.356,474.512" id="Path" stroke="#FFFFFF" stroke-width="1.2" stroke-linecap="square"></path>
                <polyline id="Path" stroke="#FFFFFF" stroke-width="1.2" stroke-linecap="square" points="203.46 337.336 209.3 351.084 204.42 353.188"></polyline>
            </g>
        </g>
    </g>
</svg>