<?xml version="1.0" encoding="UTF-8"?>
<svg width="877px" height="802px" viewBox="0 0 877 802" version="1.1" xmlns="http://www.w3.org/2000/svg" xmlns:xlink="http://www.w3.org/1999/xlink">
    <title>5C6B4331-7BD9-4A4D-97C4-1FD6924B8DDC</title>
    <defs>
        <path d="M192.22,53.795 C192.22,53.795 152.72,39.45 101.965,40.565 C42.135,41.88 13.67,84.65 1.465,112.435 C0.3415,114.984 -0.131,117.772 0.09,120.5485 C0.311,123.3255 1.218,126.0035 2.73,128.343 C4.242,130.6825 6.3115,132.6095 8.7525,133.951 C11.1935,135.293 13.9295,136.0075 16.715,136.03 L71.215,136.465 L143.83,137.08 L156.545,94.205 L207.68,97.23 C214.69,97.6455 221.62,95.548 227.225,91.3145 C232.83,87.081 236.745,80.988 238.26,74.13 L252.585,9.335 L217.45,0.015 L192.22,53.795 Z" id="path-1"></path>
    </defs>
    <g id="Page-1" stroke="none" stroke-width="1" fill="none" fill-rule="evenodd">
        <g id="sign-up" transform="translate(-45.000000, -87.000000)">
            <g id="11" transform="translate(47.647364, 87.748183)">
                <path d="M460.06498,373.38375 C504.55498,373.38375 540.61998,337.31825 540.61998,292.82875 C540.61998,248.33925 504.55498,212.27375 460.06498,212.27375 C415.57548,212.27375 379.50998,248.33925 379.50998,292.82875 C379.50998,337.31825 415.57548,373.38375 460.06498,373.38375 Z" id="Path" fill="#E9EEF2" fill-rule="nonzero"></path>
                <polygon id="Path" fill="#E9EEF2" fill-rule="nonzero" points="566.51998 604.46875 353.60498 604.46875 434.33498 286.42875 485.78998 286.42875"></polygon>
                <polygon id="Path" fill="#E9EEF2" fill-rule="nonzero" points="698.94998 285.55875 698.94998 394.47875 622.83498 394.47875 622.83498 313.14375 650.42498 285.55875"></polygon>
                <polygon id="Path" fill="#DCE2E5" fill-rule="nonzero" points="650.42498 285.55875 650.42498 313.14375 622.83498 313.14375"></polygon>
                <path d="M660.89498,342.01875 C666.17998,342.01875 670.45998,337.73625 670.45998,332.45375 C670.45998,327.17125 666.17998,322.88875 660.89498,322.88875 C655.60998,322.88875 651.32998,327.17125 651.32998,332.45375 C651.32998,337.73625 655.60998,342.01875 660.89498,342.01875 Z" id="Path" fill="#DCE2E5" fill-rule="nonzero"></path>
                <polygon id="Path" fill="#DCE2E5" fill-rule="nonzero" points="673.53498 369.45375 648.25498 369.45375 657.83998 331.69375 663.94998 331.69375"></polygon>
                <polygon id="Path" fill="#E9EEF2" fill-rule="nonzero" points="681.50998 302.91875 681.50998 411.83875 605.39498 411.83875 605.39498 330.50375 632.98498 302.91875"></polygon>
                <polygon id="Path" fill="#DCE2E5" fill-rule="nonzero" points="632.98498 302.91875 632.98498 330.50375 605.39498 330.50375"></polygon>
                <path d="M643.44998,359.37875 C648.73498,359.37875 653.01498,355.09625 653.01498,349.81375 C653.01498,344.53125 648.73498,340.24875 643.44998,340.24875 C638.16498,340.24875 633.88498,344.53125 633.88498,349.81375 C633.88498,355.09625 638.16498,359.37875 643.44998,359.37875 Z" id="Path" fill="#DCE2E5" fill-rule="nonzero"></path>
                <polygon id="Path" fill="#DCE2E5" fill-rule="nonzero" points="656.08998 386.81375 630.80998 386.81375 640.39498 349.05375 646.50498 349.05375"></polygon>
                <path d="M274.01498,411.29875 L274.01998,411.29875 C279.24198,411.29875 283.47498,407.06575 283.47498,401.84375 L283.47498,310.48875 C283.47498,305.26675 279.24198,301.03375 274.01998,301.03375 L274.01498,301.03375 C268.79348,301.03375 264.55998,305.26675 264.55998,310.48875 L264.55998,401.84375 C264.55998,407.06575 268.79348,411.29875 274.01498,411.29875 Z" id="Path" fill="#DCE2E5" fill-rule="nonzero"></path>
                <path d="M246.88498,382.70375 C243.13248,382.70375 240.08998,385.74575 240.08998,389.49875 C240.08998,393.25175 243.13248,396.29375 246.88498,396.29375 L272.93998,396.29375 C276.69298,396.29375 279.73498,393.25175 279.73498,389.49875 C279.73498,385.74575 276.69298,382.70375 272.93998,382.70375 L246.88498,382.70375 Z" id="Path" fill="#DCE2E5" fill-rule="nonzero"></path>
                <path d="M257.34998,363.08875 C253.59698,363.08875 250.55498,366.13075 250.55498,369.88375 C250.55498,373.63675 253.59698,376.67875 257.34998,376.67875 L275.44998,376.67875 C279.20248,376.67875 282.24498,373.63675 282.24498,369.88375 C282.24498,366.13075 279.20248,363.08875 275.44998,363.08875 L257.34998,363.08875 Z" id="Path" fill="#DCE2E5" fill-rule="nonzero"></path>
                <path d="M274.01498,261.833749 C277.87998,261.83275 281.65848,262.97775 284.87248,265.12425 C288.08648,267.27075 290.59148,270.32225 292.07148,273.89275 C293.55098,277.46325 293.93848,281.39225 293.18548,285.18275 C292.43198,288.97325 290.57148,292.45575 287.83848,295.18875 C285.10598,297.92225 281.62448,299.78375 277.83398,300.53775 C274.04348,301.29225 270.11448,300.90575 266.54348,299.42675 C262.97298,297.94825 259.92098,295.44375 257.77348,292.23025 C255.62648,289.01675 254.47998,285.23875 254.47998,281.37375 C254.48548,276.19375 256.54498,271.22775 260.20748,267.56425 C263.86948,263.90125 268.83548,261.84025 274.01498,261.833749 L274.01498,261.833749 Z M274.01498,245.83375 C266.98598,245.83375 260.11448,247.91825 254.26998,251.82325 C248.42548,255.72825 243.87048,261.27925 241.18048,267.77325 C238.49048,274.26725 237.78648,281.41325 239.15798,288.30725 C240.52948,295.20125 243.91398,301.53375 248.88448,306.50425 C253.85498,311.47475 260.18748,314.85975 267.08148,316.23075 C273.97548,317.60225 281.12148,316.89825 287.61548,314.20825 C294.10998,311.51825 299.66048,306.96325 303.56548,301.11875 C307.47048,295.27425 309.55498,288.40275 309.55498,281.37375 C309.55498,271.94775 305.81048,262.90825 299.14548,256.24325 C292.48048,249.57825 283.44098,245.83375 274.01498,245.83375 Z" id="Shape" fill="#DCE2E5" fill-rule="nonzero"></path>
                <path d="M737.34998,228.59875 C741.85498,228.59875 745.50998,224.94525 745.50998,220.43875 C745.50998,215.9321 741.85498,212.27875 737.34998,212.27875 L658.51998,212.27875 C654.01498,212.27875 650.35998,215.9321 650.35998,220.43875 C650.35998,224.94525 654.01498,228.59875 658.51998,228.59875 L737.34998,228.59875 Z" id="Path" fill="#E9EEF2" fill-rule="nonzero"></path>
                <path d="M720.83998,243.84875 C720.83998,247.08775 723.46498,249.71375 726.69998,249.71375 C729.93998,249.71375 732.56498,247.08775 732.56498,243.84875 L732.56498,221.36875 C732.56498,218.12975 729.93998,215.50375 726.69998,215.50375 C723.46498,215.50375 720.83998,218.12975 720.83998,221.36875 L720.83998,243.84875 Z" id="Path" fill="#E9EEF2" fill-rule="nonzero"></path>
                <path d="M703.90998,234.82375 C703.90998,238.06275 706.53498,240.68875 709.77498,240.68875 C713.00998,240.68875 715.63498,238.06275 715.63498,234.82375 L715.63498,219.20875 C715.63498,215.9696 713.00998,213.34375 709.77498,213.34375 C706.53498,213.34375 703.90998,215.9696 703.90998,219.20875 L703.90998,234.82375 Z" id="Path" fill="#E9EEF2" fill-rule="nonzero"></path>
                <path d="M633.40998,205.76875 C636.30998,205.76875 639.14498,206.62885 641.55998,208.24025 C643.96998,209.85165 645.84998,212.142 646.95998,214.8217 C648.06998,217.50125 648.35998,220.45025 647.79498,223.29475 C647.22498,226.13925 645.82998,228.75275 643.77998,230.80325 C641.72998,232.85425 639.11498,234.25125 636.26998,234.81675 C633.42498,235.38275 630.47998,235.09225 627.79998,233.98225 C625.11998,232.87225 622.82998,230.99275 621.21498,228.58125 C619.60498,226.16975 618.74498,223.33425 618.74498,220.43375 C618.74998,216.54575 620.29498,212.81895 623.04498,210.06985 C625.79498,207.3208 629.51998,205.77405 633.40998,205.76875 Z M633.40998,189.76875 C627.34498,189.76975 621.41498,191.56905 616.37498,194.93915 C611.33498,198.30925 607.40498,203.09885 605.08498,208.7022 C602.76498,214.3056 602.15498,220.47125 603.33998,226.41925 C604.52498,232.36725 607.44498,237.83075 611.73498,242.11875 C616.01998,246.40725 621.48498,249.32725 627.43498,250.50975 C633.38498,251.69275 639.54998,251.08525 645.14998,248.76425 C650.75498,246.44275 655.54498,242.51275 658.90998,237.46975 C662.27998,232.42725 664.07998,226.49825 664.07998,220.43375 C664.07998,216.40625 663.28498,212.4184 661.74498,208.6976 C660.20498,204.97685 657.94498,201.5961 655.09498,198.74855 C652.24998,195.90095 648.86998,193.6423 645.14498,192.10155 C641.42498,190.56075 637.43498,189.7681 633.40998,189.76875 L633.40998,189.76875 Z" id="Shape" fill="#E9EEF2" fill-rule="nonzero"></path>
                <path d="M507.34998,98.59875 C511.85498,98.59875 515.50998,94.94525 515.50998,90.43875 C515.50998,85.9321 511.85498,82.27875 507.34998,82.27875 L428.51998,82.27875 C424.01498,82.27875 420.35998,85.9321 420.35998,90.43875 C420.35998,94.94525 424.01498,98.59875 428.51998,98.59875 L507.34998,98.59875 Z" id="Path" fill="#E9EEF2" fill-rule="nonzero"></path>
                <path d="M490.83998,113.84875 C490.83998,117.08775 493.46498,119.71375 496.69998,119.71375 C499.93998,119.71375 502.56498,117.08775 502.56498,113.84875 L502.56498,91.36875 C502.56498,88.12975 499.93998,85.50375 496.69998,85.50375 C493.46498,85.50375 490.83998,88.12975 490.83998,91.36875 L490.83998,113.84875 Z" id="Path" fill="#E9EEF2" fill-rule="nonzero"></path>
                <path d="M473.90998,104.82375 C473.90998,108.06275 476.53498,110.68875 479.77498,110.68875 C483.00998,110.68875 485.63498,108.06275 485.63498,104.82375 L485.63498,89.20875 C485.63498,85.9696 483.00998,83.34375 479.77498,83.34375 C476.53498,83.34375 473.90998,85.9696 473.90998,89.20875 L473.90998,104.82375 Z" id="Path" fill="#E9EEF2" fill-rule="nonzero"></path>
                <path d="M403.40998,75.76875 C406.30998,75.76875 409.14498,76.62885 411.55998,78.24025 C413.96998,79.85165 415.84998,82.142 416.95998,84.8217 C418.06998,87.50125 418.35998,90.45025 417.79498,93.29475 C417.22498,96.13925 415.82998,98.75275 413.77998,100.80325 C411.72998,102.85425 409.11498,104.25125 406.26998,104.81675 C403.42498,105.38275 400.47998,105.09225 397.79998,103.98225 C395.11998,102.87225 392.82998,100.99275 391.21498,98.58125 C389.60498,96.16975 388.74498,93.33425 388.74498,90.43375 C388.74998,86.54575 390.29498,82.81895 393.04498,80.06985 C395.79498,77.3208 399.51998,75.77405 403.40998,75.76875 Z M403.40998,59.7687496 C397.34498,59.76975 391.41498,61.56905 386.37498,64.93915 C381.33498,68.30925 377.40498,73.09885 375.08498,78.7022 C372.76498,84.3056 372.15498,90.47125 373.33998,96.41925 C374.52498,102.36725 377.44498,107.83075 381.73498,112.11875 C386.01998,116.40725 391.48498,119.32725 397.43498,120.50975 C403.38498,121.69275 409.54998,121.08525 415.14998,118.76425 C420.75498,116.44275 425.54498,112.51275 428.90998,107.46975 C432.27998,102.42725 434.07998,96.49825 434.07998,90.43375 C434.07998,86.40625 433.28498,82.4184 431.74498,78.6976 C430.20498,74.97685 427.94498,71.5961 425.09498,68.74855 C422.24998,65.90095 418.86998,63.6423 415.14498,62.10155 C411.42498,60.56075 407.43498,59.7681 403.40998,59.7687496 L403.40998,59.7687496 Z" id="Shape" fill="#E9EEF2" fill-rule="nonzero"></path>
                <path d="M97.79498,508.51875 C113.43048,508.51875 126.10498,495.84375 126.10498,480.20875 C126.10498,464.57375 113.43048,451.89875 97.79498,451.89875 C82.15998,451.89875 69.48498,464.57375 69.48498,480.20875 C69.48498,495.84375 82.15998,508.51875 97.79498,508.51875 Z" id="Path" fill="#DCE2E5" fill-rule="nonzero"></path>
                <path d="M75.75998,268.14875 C97.38448,268.14875 114.91498,250.61825 114.91498,228.99375 C114.91498,207.36905 97.38448,189.83875 75.75998,189.83875 C54.13548,189.83875 36.60498,207.36905 36.60498,228.99375 C36.60498,250.61825 54.13548,268.14875 75.75998,268.14875 Z" id="Path" fill="#E9EEF2" fill-rule="nonzero"></path>
                <polygon id="Path" fill="#DCE2E5" fill-rule="nonzero" points="143.94998 639.90375 51.63998 639.90375 69.24998 564.50875 74.45498 542.22875 86.63998 490.05875 108.94998 490.05875 121.13498 542.22875 126.33998 564.50875"></polygon>
                <path d="M804.83498,303.24875 C824.21498,303.24875 839.92998,287.53625 839.92998,268.15375 C839.92998,248.77125 824.21498,233.05875 804.83498,233.05875 C785.45498,233.05875 769.73998,248.77125 769.73998,268.15375 C769.73998,287.53625 785.45498,303.24875 804.83498,303.24875 Z" id="Path" fill="#DCE2E5" fill-rule="nonzero"></path>
                <polygon id="Path" fill="#DCE2E5" fill-rule="nonzero" points="862.75998 390.58375 746.90998 390.58375 790.83498 277.72375 818.83498 277.72375"></polygon>
                <path d="M674.63998,49.133 C688.20598,49.133 699.20648,38.13425 699.20648,24.5665 C699.20648,10.99875 688.20598,0 674.63998,0 C661.07398,0 650.07348,10.99875 650.07348,24.5665 C650.07348,38.13425 661.07398,49.133 674.63998,49.133 Z" id="Path" fill="#DCE2E5" fill-rule="nonzero"></path>
                <polygon id="Path" fill="#DCE2E5" fill-rule="nonzero" points="715.18748 110.2675 634.09248 110.2675 664.83998 31.2655 684.43998 31.2655"></polygon>
                <path d="M741.60498,546.09375 C762.65998,546.09375 779.72998,529.02475 779.72998,507.96875 C779.72998,486.91275 762.65998,469.84375 741.60498,469.84375 C720.54998,469.84375 703.47998,486.91275 703.47998,507.96875 C703.47998,529.02475 720.54998,546.09375 741.60498,546.09375 Z" id="Path" fill="#E9EEF2" fill-rule="nonzero"></path>
                <polygon id="Path" fill="#E9EEF2" fill-rule="nonzero" points="791.98998 655.46375 691.21998 655.46375 729.42998 504.93875 753.77998 504.93875"></polygon>
                <path d="M851.36498,456.47875 C860.75498,456.47875 868.36498,448.86775 868.36498,439.47875 C868.36498,430.08975 860.75498,422.47875 851.36498,422.47875 C841.97498,422.47875 834.36498,430.08975 834.36498,439.47875 C834.36498,448.86775 841.97498,456.47875 851.36498,456.47875 Z" id="Path" stroke="#E9EEF2" stroke-width="5"></path>
                <line x1="845.52498" y1="455.44875" x2="833.28498" y2="490.93875" id="Path" stroke="#E9EEF2" stroke-width="5"></line>
                <line x1="833.53998" y1="488.20375" x2="843.43998" y2="491.70875" id="Path" stroke="#E9EEF2" stroke-width="5"></line>
                <line x1="837.86998" y1="477.64875" x2="846.20998" y2="480.63375" id="Path" stroke="#E9EEF2" stroke-width="5"></line>
                <path d="M170.12498,207.42875 C177.92598,207.42875 184.24998,201.10475 184.24998,193.30375 C184.24998,185.5027 177.92598,179.17875 170.12498,179.17875 C162.32398,179.17875 155.99998,185.5027 155.99998,193.30375 C155.99998,201.10475 162.32398,207.42875 170.12498,207.42875 Z" id="Path" stroke="#E9EEF2" stroke-width="5"></path>
                <line x1="179.78498" y1="203.61875" x2="201.52998" y2="225.99375" id="Path" stroke="#E9EEF2" stroke-width="5"></line>
                <line x1="199.59498" y1="224.77875" x2="205.90498" y2="218.74875" id="Path" stroke="#E9EEF2" stroke-width="5"></line>
                <line x1="193.38498" y1="217.61375" x2="198.72498" y2="212.54375" id="Path" stroke="#E9EEF2" stroke-width="5"></line>
                <path d="M620.35498,517.21375 C627.87998,517.21375 633.97998,511.11375 633.97998,503.58875 C633.97998,496.06375 627.87998,489.96375 620.35498,489.96375 C612.82998,489.96375 606.72998,496.06375 606.72998,503.58875 C606.72998,511.11375 612.82998,517.21375 620.35498,517.21375 Z" id="Path" stroke="#E9EEF2" stroke-width="5"></path>
                <line x1="628.16498" y1="514.75875" x2="644.94998" y2="539.73375" id="Path" stroke="#E9EEF2" stroke-width="5"></line>
                <path d="M470.35498,777.21375 C477.87998,777.21375 483.97998,771.11375 483.97998,763.58875 C483.97998,756.06375 477.87998,749.96375 470.35498,749.96375 C462.82998,749.96375 456.72998,756.06375 456.72998,763.58875 C456.72998,771.11375 462.82998,777.21375 470.35498,777.21375 Z" id="Path" stroke="#E9EEF2" stroke-width="5"></path>
                <line x1="478.16498" y1="774.75875" x2="494.94998" y2="799.73375" id="Path" stroke="#E9EEF2" stroke-width="5"></line>
                <line x1="644.18998" y1="537.66375" x2="637.24498" y2="542.41875" id="Path" stroke="#E9EEF2" stroke-width="5"></line>
                <line x1="638.66498" y1="530.37875" x2="632.81498" y2="534.40875" id="Path" stroke="#E9EEF2" stroke-width="5"></line>
                <line x1="0" y1="486.27375" x2="43.39498" y2="529.66875" id="Path" stroke="#E9EEF2" stroke-width="5"></line>
                <line x1="822.00498" y1="168.143745" x2="865.39998" y2="211.53875" id="Path" stroke="#E9EEF2" stroke-width="5"></line>
                <line x1="159.24998" y1="410.24375" x2="202.64998" y2="453.63875" id="Path" stroke="#E9EEF2" stroke-width="5"></line>
                <line x1="829.12498" y1="582.76875" x2="872.52498" y2="626.16375" id="Path" stroke="#E9EEF2" stroke-width="5"></line>
                <line x1="309.82998" y1="187.38375" x2="353.22498" y2="230.77875" id="Path" stroke="#E9EEF2" stroke-width="5"></line>
                <line x1="202.02498" y1="292.06875" x2="159.87498" y2="334.21875" id="Path" stroke="#E9EEF2" stroke-width="5"></line>
                <line x1="169.24998" y1="670.24375" x2="212.64998" y2="713.63875" id="Path" stroke="#E9EEF2" stroke-width="5"></line>
                <line x1="212.02498" y1="552.06875" x2="169.87498" y2="594.21875" id="Path" stroke="#E9EEF2" stroke-width="5"></line>
                <line x1="646.90998" y1="622.17875" x2="604.76498" y2="664.32875" id="Path" stroke="#E9EEF2" stroke-width="5"></line>
                <line x1="232.24498" y1="624.31375" x2="268.85998" y2="660.92875" id="Path" stroke="#E9EEF2" stroke-width="5"></line>
                <polygon id="Path" fill="#E9EEF2" fill-rule="nonzero" points="92.83498 240.75875 58.67998 240.75875 58.67998 354.60375 92.83498 354.60375"></polygon>
                <polygon id="Path" fill="#E9EEF2" fill-rule="nonzero" points="664.06498 320.27875 664.06498 429.19875 587.94998 429.19875 587.94998 347.86375 615.53998 320.27875"></polygon>
                <polygon id="Path" fill="#DCE2E5" fill-rule="nonzero" points="615.53998 320.27875 615.53998 347.86375 587.94998 347.86375"></polygon>
                <path d="M626.00998,376.73875 C631.29498,376.73875 635.57498,372.45625 635.57498,367.17375 C635.57498,361.89125 631.29498,357.60875 626.00998,357.60875 C620.72498,357.60875 616.44498,361.89125 616.44498,367.17375 C616.44498,372.45625 620.72498,376.73875 626.00998,376.73875 Z" id="Path" fill="#DCE2E5" fill-rule="nonzero"></path>
                <polygon id="Path" fill="#DCE2E5" fill-rule="nonzero" points="638.64998 404.17375 613.36998 404.17375 622.95498 366.41375 629.06498 366.41375"></polygon>
                <line x1="615.53998" y1="320.27875" x2="664.06498" y2="320.27875" id="Path" stroke="#FFFFFF" stroke-width="1.5" stroke-linecap="square"></line>
                <line x1="664.06498" y1="413.24875" x2="664.06498" y2="320.27875" id="Path" stroke="#FFFFFF" stroke-width="1.5" stroke-linecap="square"></line>
                <line x1="632.98498" y1="302.91875" x2="681.50998" y2="302.91875" id="Path" stroke="#FFFFFF" stroke-width="1.5" stroke-linecap="square"></line>
                <line x1="681.50998" y1="394.47875" x2="681.50998" y2="302.91875" id="Path" stroke="#FFFFFF" stroke-width="1.5" stroke-linecap="square"></line>
                <path d="M181.539996,553.36375 C181.539996,556.31675 180.36748,559.14825 178.28048,561.23725 C176.19348,563.32625 173.36298,564.50125 170.40998,564.50375 L69.24998,564.50375 L74.45498,542.20875 L170.40998,542.20875 C171.87348,542.20925 173.32248,542.49875 174.67448,543.05975 C176.02598,543.62075 177.25398,544.44275 178.28748,545.47875 C179.32098,546.51475 180.14048,547.74475 180.69848,549.09775 C181.25648,550.45075 181.54248,551.90025 181.539996,553.36375 L181.539996,553.36375 Z" id="Path" fill="#E9EEF2" fill-rule="nonzero"></path>
                <path d="M204.69998,531.49875 C209.02448,531.49975 213.25098,532.78275 216.84598,535.18625 C220.44098,537.58925 223.24298,541.00425 224.89698,544.99975 C226.55098,548.99525 226.98348,553.39125 226.13898,557.63225 C225.29498,561.87375 223.21198,565.76925 220.15398,568.82625 C217.09598,571.88375 213.19998,573.96575 208.95898,574.80875 C204.71748,575.65225 200.32148,575.21875 196.32648,573.56375 C192.33148,571.90875 188.91698,569.10625 186.51448,565.51075 C184.11198,561.91525 182.82998,557.68825 182.82998,553.36375 C182.83648,547.56575 185.14298,542.00775 189.24298,537.90825 C193.34348,533.80925 198.90198,531.50425 204.69998,531.49875 L204.69998,531.49875 Z M204.69998,511.49875 C196.41998,511.49875 188.32548,513.95425 181.44098,518.55425 C174.55648,523.15425 169.19048,529.69275 166.02198,537.34275 C162.85298,544.99275 162.02398,553.41025 163.63948,561.53125 C165.25498,569.65225 169.24198,577.11175 175.09698,582.96675 C180.95198,588.82175 188.41148,592.80875 196.53248,594.42425 C204.65348,596.03975 213.07098,595.21075 220.72098,592.04175 C228.37098,588.87325 234.90948,583.50725 239.50948,576.62275 C244.10948,569.73825 246.56498,561.64375 246.56498,553.36375 C246.56348,542.26075 242.15248,531.61325 234.30148,523.76225 C226.45048,515.91125 215.80298,511.50025 204.69998,511.49875 L204.69998,511.49875 Z" id="Shape" fill="#E9EEF2" fill-rule="nonzero"></path>
                <path d="M399.01998,689.63375 L421.21998,506.93875 L431.71998,554.93875 L423.63498,689.63375 L484.60998,689.63375 L493.19498,541.63375 C493.78448,531.48675 492.82048,521.30925 490.33498,511.45375 L458.05998,383.45375 L355.50498,382.63375 L355.13998,533.70875 L339.53998,689.63375 L399.01998,689.63375 Z" id="Path" fill="#274992" fill-rule="nonzero"></path>
                <line x1="421.52498" y1="510.90875" x2="428.40998" y2="438.77875" id="Path" stroke="#FFFFFF" stroke-width="1.5" stroke-linecap="square"></line>
                <path d="M538.47998,248.05375 L537.37498,241.80875 C537.04998,238.76275 536.88498,235.70175 536.87498,232.63875 C536.87498,227.85375 539.46998,221.88375 535.04998,213.94875 C530.62998,206.01375 539.54998,210.80875 541.80998,214.55375 C543.71998,217.67875 543.73998,224.71875 545.90498,227.05375 C546.80498,226.40575 547.60998,225.63275 548.28998,224.75875 L563.28998,199.61375 C563.51998,199.2071 563.89498,198.89805 564.33498,198.7437 C564.77498,198.5893 565.25998,198.6 565.69498,198.77375 L566.69498,199.17875 C566.94498,199.27995 567.17498,199.4328 567.36498,199.62755 C567.55498,199.8223 567.69998,200.0546 567.79498,200.30945 C567.88998,200.56425 567.92998,200.83605 567.90998,201.1072 C567.89498,201.37835 567.81998,201.6429 567.69498,201.88375 C564.83998,207.38375 555.88998,223.58875 556.19498,223.70375 L556.72998,224.20375 L574.93498,199.73375 C575.20498,199.34585 575.60998,199.0704 576.06998,198.959 C576.52998,198.8476 577.01498,198.90795 577.43498,199.12875 L578.78998,199.85375 C579.02498,199.9765 579.22998,200.14565 579.39498,200.3508 C579.55998,200.55595 579.67998,200.79275 579.74998,201.04665 C579.81998,201.3005 579.83998,201.5661 579.79998,201.827 C579.76498,202.0879 579.67498,202.33865 579.53998,202.56375 C576.03998,208.41375 562.53998,227.26375 562.83998,227.39375 L563.52998,227.92375 L580.86998,208.47375 C581.15498,208.0658 581.58998,207.7837 582.07498,207.68595 C582.56498,207.5882 583.07498,207.6823 583.49498,207.94875 L584.53498,208.61375 C584.74998,208.75105 584.93998,208.9296 585.08498,209.1392 C585.22998,209.3488 585.33498,209.58535 585.38998,209.83525 C585.44498,210.08515 585.44998,210.3435 585.40498,210.5955 C585.35998,210.8475 585.26998,211.0882 585.12998,211.30375 L568.90998,230.70875 L569.53498,231.47875 L584.09498,218.41375 C584.40998,218.05725 584.84498,217.82825 585.31998,217.77125 C585.78998,217.71425 586.26998,217.83225 586.65998,218.10375 L587.15998,218.44875 C587.57498,218.74125 587.85998,219.18375 587.94998,219.68225 C588.04498,220.18075 587.93998,220.69625 587.65998,221.11875 C585.65998,224.15375 578.98498,229.61875 573.98498,236.00375 C570.10498,240.94875 568.43998,245.39875 562.87498,251.09375 C560.52498,253.50875 556.74498,256.04375 554.67498,257.47375" id="Path" fill="#3361C2" fill-rule="nonzero"></path>
                <polygon id="Path" fill="#162C56" fill-rule="nonzero" points="427.04998 689.63375 415.51998 712.61375 519.19498 712.61375 476.00998 689.63375"></polygon>
                <polygon id="Path" fill="#162C56" fill-rule="nonzero" points="343.05498 689.63375 331.52998 712.61375 435.19998 712.61375 392.01498 689.63375"></polygon>
                <path d="M506.44998,300.16875 C506.44998,300.16875 466.94998,285.82375 416.19498,286.93875 C356.36498,288.25375 327.89998,331.02375 315.69498,358.80875 C314.57148,361.35775 314.09898,364.14575 314.31998,366.92225 C314.54098,369.69925 315.44798,372.37725 316.95998,374.71675 C318.47198,377.05625 320.54148,378.98325 322.98248,380.32475 C325.42348,381.66675 328.15948,382.38125 330.94498,382.40375 L458.05998,383.45375 L470.77498,340.57875 L521.90998,343.60375 C528.91998,344.01925 535.84998,341.92175 541.45498,337.68825 C547.05998,333.45475 550.97498,327.36175 552.48998,320.50375 L566.81498,255.70875 L531.67998,246.38875 L506.44998,300.16875 Z" id="Path" fill="#EF6E45" fill-rule="nonzero"></path>
                <g id="Clipped" transform="translate(314.229980, 246.373750)">
                    <mask id="mask-2" fill="white">
                        <use xlink:href="#path-1"></use>
                    </mask>
                    <g id="Path"></g>
                    <g id="Group" mask="url(#mask-2)">
                        <g transform="translate(-21.500000, -23.000000)" id="Path">
                            <line x1="36.9" y1="78.03" x2="70.115" y2="111.245" stroke="#FFA161" stroke-width="15.5" stroke-linecap="round"></line>
                            <line x1="89.415" y1="83.46" x2="126.235" y2="46.635" stroke="#FFA161" stroke-width="15.5" stroke-linecap="round"></line>
                            <line x1="149.805" y1="117.84" x2="127.215" y2="95.245" stroke="#FFA161" stroke-width="15.5" stroke-linecap="round"></line>
                            <line x1="163.335" y1="81.515" x2="196.12" y2="48.73" stroke="#FFA161" stroke-width="15.5" stroke-linecap="round"></line>
                            <line x1="204.375" y1="95.375" x2="242.13" y2="133.13" stroke="#FFA161" stroke-width="15.5" stroke-linecap="round"></line>
                            <line x1="248.595" y1="78.44" x2="285.775" y2="41.255" stroke="#FFA161" stroke-width="15.5" stroke-linecap="round"></line>
                            <line x1="244.285" y1="40.285" x2="204.495" y2="0.495" stroke="#FFA161" stroke-width="15.5" stroke-linecap="round"></line>
                            <line x1="107.185" y1="120.745" x2="86.015" y2="141.91" stroke="#FFA161" stroke-width="15.5" stroke-linecap="round"></line>
                            <line x1="36.94" y1="125.04" x2="0.34" y2="161.64" stroke="#FFA161" stroke-width="15.5" stroke-linecap="round"></line>
                            <line x1="139.27" y1="151.695" x2="167.68" y2="180.105" stroke="#FFA161" stroke-width="15.5" stroke-linecap="round"></line>
                            <line x1="175.975" y1="157.1" x2="114.505" y2="156.075" stroke="#FFFFFF" stroke-width="7" stroke-linecap="square"></line>
                        </g>
                    </g>
                </g>
                <line x1="423.44498" y1="233.05375" x2="421.87998" y2="290.19375" id="Path" stroke="#3361C2" stroke-width="32.5" stroke-linecap="round" stroke-linejoin="round"></line>
                <path d="M432.44498,274.41375 L435.48498,274.47875 C439.02048,274.55375 442.52948,273.84875 445.76148,272.41325 C448.99348,270.97775 451.86948,268.84725 454.18448,266.17375 C456.49948,263.50025 458.19648,260.34925 459.15498,256.94525 C460.11348,253.54075 460.30998,249.96725 459.72998,246.47875 L456.86498,229.20875 C455.93848,223.62725 453.07498,218.55075 448.77748,214.8711 C444.47948,211.19145 439.02248,209.1441 433.36498,209.08875 L433.36498,209.08875 C430.20548,209.0564 427.06998,209.6468 424.13848,210.8261 C421.20698,212.00545 418.53698,213.7507 416.27998,215.96215 C414.02298,218.17375 412.22348,220.80775 410.98498,223.71475 C409.74598,226.62175 409.09198,229.74425 409.05998,232.90375 L408.90998,250.11375 C408.84648,256.44575 411.28148,262.54825 415.68748,267.09675 C420.09298,271.64575 426.11398,274.27475 432.44498,274.41375 L432.44498,274.41375 Z" id="Path" fill="#3361C2" fill-rule="nonzero"></path>
                <path d="M404.44198,255.43075 C407.37148,259.34375 412.91698,260.14175 416.82848,257.21325 C420.73998,254.28475 421.53648,248.73925 418.60748,244.82625 L415.60198,240.81175 C412.67248,236.89875 407.12698,236.10075 403.21548,239.02925 C399.30348,241.95775 398.50748,247.50375 401.43648,251.41625 L404.44198,255.43075 Z" id="Path" fill="#3361C2" fill-rule="nonzero"></path>
                <line x1="404.82998" y1="245.80375" x2="410.90998" y2="252.17375" id="Path" stroke="#FFFFFF" stroke-width="1.5" stroke-linecap="square"></line>
                <polyline id="Path" stroke="#FFFFFF" stroke-width="1.5" stroke-linecap="square" points="447.23998 237.20375 449.00998 251.13875 444.05998 251.79375"></polyline>
                <path d="M431.57998,257.20875 C430.89048,258.81925 430.86898,260.63775 431.51998,262.26425 C432.17148,263.89075 433.44198,265.19175 435.05248,265.88125 C436.66298,266.57075 438.48148,266.59225 440.10798,265.94125 C441.73448,265.28975 443.03548,264.01925 443.72498,262.40875 C445.15998,259.05875 441.66498,257.90875 438.30998,256.46875 C434.95498,255.02875 433.01498,253.85875 431.57998,257.20875 Z" id="Path" fill="#FFFFFF" fill-rule="nonzero"></path>
                <path d="M418.12498,251.09875 L422.54498,225.24875 L423.58998,219.11375 C425.23698,220.57775 427.11348,221.76025 429.14498,222.61375 C436.51998,225.75375 457.58998,222.30875 459.14498,207.17375 C460.43498,194.82875 448.19498,202.97375 441.52998,202.81875 C431.06498,202.56875 423.30998,197.12875 409.83498,206.08875 C393.69998,216.81875 403.79498,238.58875 403.79498,238.58875 C403.79498,238.58875 411.02498,235.01875 418.12498,251.09875 Z" id="Path" fill="#24272D" fill-rule="nonzero"></path>
                <polygon id="Path" fill="#24272D" fill-rule="nonzero" points="438.46998 274.48375 429.40998 274.48875 438.34998 281.74375"></polygon>
                <path d="M435.07498,243.23375 C436.44198,243.23375 437.54998,242.12575 437.54998,240.75875 C437.54998,239.39175 436.44198,238.28375 435.07498,238.28375 C433.70798,238.28375 432.59998,239.39175 432.59998,240.75875 C432.59998,242.12575 433.70798,243.23375 435.07498,243.23375 Z" id="Path" fill="#FFFFFF" fill-rule="nonzero"></path>
                <path d="M453.06498,243.23375 C454.43198,243.23375 455.53998,242.12575 455.53998,240.75875 C455.53998,239.39175 454.43198,238.28375 453.06498,238.28375 C451.69798,238.28375 450.58998,239.39175 450.58998,240.75875 C450.58998,242.12575 451.69798,243.23375 453.06498,243.23375 Z" id="Path" fill="#FFFFFF" fill-rule="nonzero"></path>
                <path d="M361.14048,471.56675 L360.63948,471.47225 C353.31748,470.09575 346.26548,474.91525 344.88898,482.23725 L304.59198,696.52375 C303.21498,703.84875 308.03448,710.89875 315.35648,712.27875 L315.85798,712.36875 C323.17998,713.74875 330.23148,708.92875 331.60848,701.60875 L371.90498,487.31725 C373.28198,479.99525 368.46248,472.94375 361.14048,471.56675 Z" id="Path" fill="#FFBA5F" fill-rule="nonzero"></path>
                <path d="M313.29248,672.46875 L313.19848,672.96875 C311.82148,680.29375 316.64098,687.34375 323.96298,688.71875 L347.40698,693.12875 C354.72898,694.50375 361.78098,689.68875 363.15798,682.36375 L363.25198,681.86375 C364.62898,674.53875 359.80948,667.48875 352.48748,666.11225 L329.04348,661.70375 C321.72148,660.32675 314.66948,665.14625 313.29248,672.46875 Z" id="Path" fill="#FFBA5F" fill-rule="nonzero"></path>
                <path d="M329.16548,634.30175 L329.07098,634.80325 C327.69448,642.12525 332.51398,649.17675 339.83598,650.55375 L370.88148,656.39175 C378.20348,657.76875 385.25548,652.94925 386.63248,645.62725 L386.72648,645.12625 C388.10348,637.80425 383.28398,630.75225 375.96198,629.37525 L344.91598,623.53725 C337.59398,622.16025 330.54248,626.97975 329.16548,634.30175 Z" id="Path" fill="#FFBA5F" fill-rule="nonzero"></path>
                <path d="M369.32998,409.58875 C371.20248,409.59275 373.07048,409.76975 374.90998,410.11875 C382.22648,411.50075 388.76498,415.56025 393.24848,421.50475 C397.73148,427.44925 399.83798,434.85175 399.15548,442.26625 C398.47298,449.68075 395.05148,456.57425 389.55848,461.60075 C384.06548,466.62725 376.89598,469.42525 369.44998,469.44875 C367.57098,469.44575 365.69648,469.26825 363.84998,468.91875 C356.53348,467.53675 349.99448,463.47675 345.51098,457.53175 C341.02798,451.58675 338.92198,444.18375 339.60498,436.76875 C340.28798,429.35425 343.71048,422.46025 349.20448,417.43425 C354.69848,412.40825 361.86898,409.61075 369.31498,409.58875 L369.31498,409.58875 L369.32998,409.58875 Z M369.31498,378.088749 C353.50798,378.09025 338.30898,384.18025 326.87448,395.09425 C315.44048,406.00825 308.64948,420.90725 307.91198,436.69725 C307.17498,452.48675 312.54848,467.95375 322.91648,479.88575 C333.28448,491.81725 347.84998,499.29675 363.58798,500.77075 C379.32598,502.24475 395.02698,497.59975 407.43048,487.80075 C419.83348,478.00175 427.98548,463.80125 430.19298,448.14925 C432.40048,432.49725 428.49398,416.59625 419.28498,403.74875 C410.07598,390.90125 396.27198,382.09525 380.73998,379.15875 C376.97348,378.44675 373.14848,378.088749 369.31498,378.088749 L369.31498,378.088749 Z" id="Shape" fill="#FFBA5F" fill-rule="nonzero"></path>
                <path d="M386.16998,380.12875 L395.19998,387.91375 C395.19998,387.91375 391.91498,411.29875 402.37998,411.29875 C402.37998,411.29875 401.96498,415.00375 404.01998,415.61375 C406.07498,416.22375 412.83998,408.17375 412.83998,408.17375 C412.83998,408.17375 421.04498,406.17375 423.50498,398.78375 C425.96498,391.39375 428.42998,373.55375 426.16998,371.91375 C423.90998,370.27375 400.11998,366.78375 400.11998,366.78375 C400.11998,366.78375 390.06998,366.78375 386.16998,380.12875 Z" id="Path" fill="#3361C2" fill-rule="nonzero"></path>
                <line x1="404.90998" y1="364.32375" x2="367.06498" y2="344.88875" id="Path" stroke="#FFFFFF" stroke-width="1.5" stroke-linecap="square"></line>
                <line x1="374.66498" y1="348.03375" x2="400.17998" y2="323.67375" id="Path" stroke="#FFFFFF" stroke-width="1.5" stroke-linecap="square"></line>
                <line x1="469.32498" y1="349.91375" x2="473.83498" y2="332.17375" id="Path" stroke="#FFFFFF" stroke-width="1.5" stroke-linecap="square"></line>
                <path d="M385.98498,381.13875 C385.98498,381.13875 386.67998,366.78375 405.60498,364.63875" id="Path" stroke="#FFFFFF" stroke-width="1.5" stroke-linecap="square"></path>
                <polyline id="Path" stroke="#FFFFFF" stroke-width="1.5" stroke-linecap="square" points="437.83498 546.09375 431.69998 554.93875 438.44998 562.17375"></polyline>
                <path d="M342.62998,495.67875 C342.62998,495.67875 350.62998,499.11375 355.32998,500.17875" id="Path" stroke="#FFFFFF" stroke-width="1.5" stroke-linecap="square"></path>
                <line x1="310.85998" y1="694.11875" x2="317.01498" y2="661.91375" id="Path" stroke="#FFFFFF" stroke-width="1.5" stroke-linecap="square"></line>
                <line x1="318.55498" y1="655.34875" x2="321.32498" y2="640.99375" id="Path" stroke="#FFFFFF" stroke-width="1.5" stroke-linecap="square"></line>
            </g>
        </g>
    </g>
</svg>